<svg enable-background="new 0 0 100 100" viewBox="0 0 100 100" xmlns="http://www.w3.org/2000/svg"><g id="Layer_1"/><g id="Layer_2"><path d="m77.617 12.203c-15.35-15.234-43.742-10.871-54.996 1.656-6.327 6.404-9.954 14.907-9.954 23.329 0 10.575 4.421 18.692 11.825 21.712 1.979.861 4.181-.13 4.716-2.356.25-.941.829-3.262 1.081-4.27.539-1.99.104-2.947-1.072-4.333-2.141-2.535-3.138-5.533-3.138-9.434 0-11.588 8.624-23.903 24.608-23.903 12.683 0 20.561 7.212 20.561 18.821.051 10.184-3.808 26.219-15.307 26.712-2.324 0-4.411-.955-5.729-2.62-3.022-3.799-.069-8.878.928-13.033 1.361-4.41 2.647-8.575 2.647-11.898 0-5.684-3.492-9.503-8.69-9.503-6.605 0-11.78 6.712-11.78 15.281 0 4.202 1.116 7.346 1.622 8.552-.832 3.527-5.778 24.498-6.716 28.453-5.673 27.012 5.749 30.469 13.659 3.864.448-1.632 2.016-7.803 2.976-11.596 2.933 2.827 7.656 4.738 12.252 4.738 27.866.321 40.397-41.709 20.507-60.172z"/></g></svg>