<?xml version="1.0" encoding="utf-8"?>
<!-- Generator: Adobe Illustrator 23.0.6, SVG Export Plug-In . SVG Version: 6.00 Build 0)  -->
<svg version="1.1" id="Layer_1" xmlns="http://www.w3.org/2000/svg" xmlns:xlink="http://www.w3.org/1999/xlink" x="0px" y="0px"
	 viewBox="0 0 512 512" style="enable-background:new 0 0 512 512;" xml:space="preserve">
<style type="text/css">
	.st0{fill:#34D399;}
</style>
<g>
	<path class="st0" d="M172.6,248.1H72.5c1.7-99.6,21.3-116.1,82.6-152.3c7-4.3,9.4-13.2,5.1-20.5c-4.1-7-13.2-9.4-20.3-5.1
		c-72.1,42.7-97.3,68.7-97.3,192.6v115c0,36.5,29.7,65.9,65.9,65.9h64c37.5,0,65.9-28.4,65.9-65.9v-64
		C238.5,276.5,210.1,248.1,172.6,248.1L172.6,248.1z"/>
	<path class="st0" d="M403.4,248.1H303.4c1.7-99.6,21.3-116.1,82.6-152.3c7-4.3,9.4-13.2,5.1-20.5c-4.3-7-13.2-9.4-20.5-5.1
		c-72.1,42.7-97.3,68.7-97.3,192.9v115c0,36.5,29.7,65.9,65.9,65.9h64c37.5,0,65.9-28.4,65.9-65.9v-64
		C469.3,276.5,441,248.1,403.4,248.1L403.4,248.1z"/>
</g>
</svg>
