<svg id="bold" enable-background="new 0 0 32 32" height="512" viewBox="0 0 32 32" width="512" xmlns="http://www.w3.org/2000/svg"><path d="m26 32h-20c-3.314 0-6-2.686-6-6v-20c0-3.314 2.686-6 6-6h20c3.314 0 6 2.686 6 6v20c0 3.314-2.686 6-6 6z" fill="#f5e6fe"/><path d="m11.333 21.333v1c0 .919.748 1.667 1.667 1.667h3.333c.92 0 1.667-.748 1.667-1.667v-1z" fill="#be63f9"/><path d="m18.768 17.234-3.671-1.335c-.656-.238-1.097-.868-1.097-1.566v-4.666c0-.7.38-1.305 1.286-1.635-.204-.021-.41-.032-.619-.032-3.309 0-6 2.692-6 6 0 1.475.542 2.894 1.527 3.995.511.571.858 1.263 1.025 2.005h6.897c.167-.743.514-1.434 1.025-2.005.197-.22.371-.457.532-.7-.294.061-.587.054-.905-.061z" fill="#be63f9"/><g fill="#d9a4fc"><path d="m19.333 8 4 1.667-4 1.666-4-1.666z"/><path d="m18.667 12.139-3.333-1.389v3.583c0 .14.088.265.219.313l3.114 1.132z"/><path d="m20 12.139v3.64l3.114-1.132c.132-.048.219-.173.219-.313v-3.584z"/></g></svg>