<?xml version="1.0" encoding="utf-8"?>
<!-- Generator: Adobe Illustrator 23.0.6, SVG Export Plug-In . SVG Version: 6.00 Build 0)  -->
<svg version="1.1" id="Layer_1" xmlns="http://www.w3.org/2000/svg" xmlns:xlink="http://www.w3.org/1999/xlink" x="0px" y="0px"
	 viewBox="0 0 512 512" style="enable-background:new 0 0 512 512;" xml:space="preserve">
<style type="text/css">
	.st0{fill-rule:evenodd;clip-rule:evenodd;fill:#FFFFFF;}
</style>
<path class="st0" d="M401.6,161.3c49.7,0,91.1,47.9,100.4,111.4H384.6c-6.5-18.6-15.5-36.2-27.2-51.9c-6.8-9.2-14.6-17.8-23.2-25.3
	C352.2,174.2,375.8,161.3,401.6,161.3L401.6,161.3z M188.9,319.9c35.7-35.7,93.7-35.7,129.4,0s35.7,93.7,0,129.4
	c-35.7,35.7-93.7,35.7-129.4,0C153.2,413.6,153.2,355.7,188.9,319.9z M259.6,437.5v-7.7c5.9-1,11.1-3.6,15.3-7.2
	c5.7-5,9.3-11.9,9.3-19.5c0-20.6-14.4-23.8-28.5-26.9c-8.8-1.9-17.4-3.8-17.4-12.8c0-3.3,1.6-6.3,4.2-8.5c2.8-2.4,6.8-3.9,11.2-3.9
	c4.4,0,8.4,1.5,11.2,3.9c2.6,2.2,4.2,5.2,4.2,8.5c0,3.3,2.7,6,6,6s6-2.7,6-6c0-6.9-3.2-13.1-8.3-17.6c-3.5-3.1-8-5.3-13-6.3v-7.7
	c0-3.3-2.7-6-6-6s-6,2.7-6,6v7.7c-5,1-9.5,3.2-13,6.3c-5.2,4.5-8.3,10.7-8.3,17.6c0,18.5,13.3,21.5,26.9,24.5
	c9.4,2.1,19,4.2,19,15.2c0,4-1.9,7.8-5.1,10.5c-3.4,2.9-8.1,4.7-13.4,4.7s-10.1-1.8-13.4-4.7c-3.2-2.7-5.1-6.4-5.1-10.5
	c0-3.3-2.7-6-6-6s-6,2.7-6,6c0,7.7,3.5,14.6,9.3,19.5c4.1,3.6,9.4,6.1,15.3,7.2v7.7c0,3.3,2.7,6,6,6S259.6,440.8,259.6,437.5
	L259.6,437.5z M82.7,310.5v58.6c0,1.6,1.4,3,3,3h65.2c-1,8.4-1,16.8,0,25.2H85.7c-15.5,0-28.2-12.7-28.2-28.2v-58.6L82.7,310.5
	L82.7,310.5z M356.4,372h65.2c1.6,0,3-1.4,3-3v-58.6h25.2v58.6c0,15.5-12.7,28.2-28.2,28.2h-65.2C357.4,388.9,357.4,380.4,356.4,372
	L356.4,372z M256,35.8c32.1,0,58.1,26,58.1,58.1S288.1,152,256,152s-58.1-26-58.1-58.1S223.9,35.8,256,35.8z M256,176.5
	c-63.1,0-115.6,60.8-127.4,141.4h45.9c1.9-2.2,3.8-4.4,5.9-6.4c40.4-40.4,106-40.4,146.4,0c2.1,2.1,4,4.2,5.9,6.4h50.7
	C371.6,237.3,319.1,176.5,256,176.5L256,176.5z M110.4,50.4c25.3,0,45.8,20.5,45.8,45.8S135.7,142,110.4,142s-45.8-20.5-45.8-45.8
	S85.1,50.4,110.4,50.4z M110.4,161.3c25.8,0,49.3,12.9,67.3,34.2c-8.6,7.5-16.4,16.1-23.2,25.3c-11.6,15.7-20.7,33.4-27.2,51.9H10
	C19.3,209.2,60.7,161.3,110.4,161.3L110.4,161.3z M401.6,50.4c25.3,0,45.8,20.5,45.8,45.8S426.9,142,401.6,142s-45.8-20.5-45.8-45.8
	S376.3,50.4,401.6,50.4z"/>
</svg>
