<svg id="Layer_1" height="512" viewBox="0 0 66 66" width="512" xmlns="http://www.w3.org/2000/svg"><g><g><path d="m55.4 62.9c.4-.4.4-1 0-1.4-2.8-2.8-7.3-2.8-10.1 0-2 2-5.3 2-7.3 0-2.8-2.8-7.3-2.8-10.1 0-2 2-5.3 2-7.3 0-2.8-2.8-7.3-2.8-10.1 0-.4.4-.4 1 0 1.4s1 .4 1.4 0c2-2 5.3-2 7.3 0 2.8 2.8 7.3 2.8 10.1 0 2-2 5.3-2 7.3 0 2.8 2.8 7.3 2.8 10.1 0 2-2 5.3-2 7.3 0 .4.4 1 .4 1.4 0z"/></g><g><path d="m21.4 7h11.6c.6 0 1-.4 1-1s-.4-1-1-1h-11.6c-.6 0-1 .4-1 1s.4 1 1 1z"/></g><g><g><path d="m23.2 48.2h2c.6 0 1-.4 1-1s-.4-1-1-1h-2c-.6 0-1 .4-1 1s.4 1 1 1z"/></g><g><path d="m29.1 48.2h2c.6 0 1-.4 1-1s-.4-1-1-1h-2c-.6 0-1 .4-1 1s.4 1 1 1z"/></g><g><path d="m34.9 48.2h2c.6 0 1-.4 1-1s-.4-1-1-1h-2c-.6 0-1 .4-1 1s.5 1 1 1z"/></g><g><path d="m40.8 48.2h2c.6 0 1-.4 1-1s-.4-1-1-1h-2c-.6 0-1 .4-1 1s.5 1 1 1z"/></g><g><path d="m43.7 31h-11.7c-.6 0-1 .4-1 1s.4 1 1 1h11.6c.6 0 1-.4 1-1 .1-.5-.4-1-.9-1z"/></g><g><path d="m43.7 35.9h-11.7c-.6 0-1 .4-1 1s.4 1 1 1h11.6c.6 0 1-.4 1-1 .1-.5-.4-1-.9-1z"/></g><g><path d="m22.3 31h-11.6c-.6 0-1 .4-1 1s.4 1 1 1h11.6c.6 0 1-.4 1-1 0-.5-.4-1-1-1z"/></g><g><path d="m22.3 35.9h-11.6c-.6 0-1 .4-1 1s.4 1 1 1h11.6c.6 0 1-.4 1-1 0-.5-.4-1-1-1z"/></g><g><path d="m34 10.9c0-.6-.4-1-1-1h-11.6c-.6 0-1 .4-1 1s.4 1 1 1h11.6c.5 0 1-.4 1-1z"/></g><g><path d="m31 19c0 .6.4 1 1 1h11.6c.6 0 1-.4 1-1s-.4-1-1-1h-11.6c-.5 0-1 .5-1 1z"/></g><g><path d="m43.7 22.9h-11.7c-.6 0-1 .4-1 1s.4 1 1 1h11.6c.6 0 1-.4 1-1 .1-.5-.4-1-.9-1z"/></g><g><path d="m22.3 18h-11.6c-.6 0-1 .4-1 1s.4 1 1 1h11.6c.6 0 1-.4 1-1 0-.5-.4-1-1-1z"/></g><g><path d="m22.3 22.9h-11.6c-.6 0-1 .4-1 1s.4 1 1 1h11.6c.6 0 1-.4 1-1 0-.5-.4-1-1-1z"/></g><g><path d="m60.2 11.9c.6 0 1-.4 1-1s-.4-1-1-1h-8.3c-.6 0-1 .4-1 1s.4 1 1 1h.6v28h-3c0-8.7 0-16.1 0-25 0-.6-.4-1-1-1h-9.7v-11.9c0-.6-.4-1-1-1h-21.3c-.6 0-1 .4-1 1v12h-9.7c-.6 0-1 .4-1 1v25h-1.8c-.3 0-.6.2-.8.4s-.2.6-.1.9c1.2 3.5 5 14.3 5.2 14.8-1.4.1-2.8-.4-3.9-1.5-.4-.4-1-.4-1.4 0s-.4 1 0 1.4c2.8 2.8 7.4 2.7 10.1 0 2-2 5.3-2 7.3 0 2.8 2.7 7.3 2.8 10.1 0 2-2 5.3-2 7.3 0 2.8 2.8 7.3 2.8 10.1 0 2-2 5.2-2 7.3 0 2.8 2.8 7.3 2.8 10.1 0 .4-.4.4-1 0-1.4s-1-.4-1.4 0c-1 1-2.3 1.5-3.6 1.5-.2 0-.3 0-.5 0 .2-.3.3-.6.5-.9v-.1-.1-.1c.2-.4.3-.9.6-1.6.9-2.4 2.9-8.1 4.2-12 .1-.3.1-.6-.1-.9-.4-.3-.7-.4-1-.4h-3.5v-28h.7zm-53.4 17.1h19.4v11h-19.4zm21.4 0h19.4v11h-19.4zm19.3-2h-19.3v-11h19.4v11zm-30-24h19.4v11c-6.8 0-12.6 0-19.4 0zm-10.7 13h19.4v11h-19.4zm54.3 27.3c-.4 1.1-.7 2.1-1.1 3h-5.3c-.6 0-1 .4-1 1s.4 1 1 1h4.6c-1.4 4-2 5.6-2.1 6.1v.1c-.1.4-.3.7-.6.9-.4-.2-.8-.5-1.1-.8-2.8-2.8-7.3-2.8-10.1 0-2 2-5.3 2-7.3 0-2.8-2.8-7.3-2.8-10.1 0-2 2-5.3 2-7.3 0-2.8-2.8-7.3-2.8-10.1 0-.4.4-.9.7-1.4 1-.3-.5.1.3-2.6-7.3h4.9c.6 0 1-.4 1-1s-.4-1-1-1h-5.6l-1.5-4.3h57.2zm-3.6-3.3h-3v-28h3z"/></g></g></g></svg>