<svg id="Layer_1" enable-background="new 0 0 66 66" viewBox="0 0 66 66" xmlns="http://www.w3.org/2000/svg"><g><g><g><g><g><g><path d="m44.3640518 21.1439648c-.6426735 0-1.1634254-.5212669-1.1634254-1.1639404v-15.3464628c0-.6426725.520752-1.1639402 1.1634254-1.1639402h7.9982796c.6426735 0 1.1634216.5212677 1.1634216 1.1639402s-.5207481 1.1639404-1.1634216 1.1639404h-6.8348579v14.1825218c-.0000001.642674-.5207482 1.163941-1.1634217 1.163941z" fill="#103635"/></g></g><g><g><path d="m21.6328602 21.1439648c-.6426735 0-1.1634235-.5212669-1.1634235-1.1639404v-14.1825224h-6.834856c-.6426735 0-1.1634245-.5212674-1.1634245-1.1639404s.520751-1.1639402 1.1634245-1.1639402h7.9982796c.6426716 0 1.1634235.5212677 1.1634235 1.1639402v15.3464622c-.0000001.642674-.520752 1.163941-1.1634236 1.163941z" fill="#103635"/></g></g></g><g><g><path d="m32.998455 19.8327885c-.6426735 0-1.1634235-.5212688-1.1634235-1.1639404v-11.8453427c0-.6426725.52075-1.1639404 1.1634235-1.1639404s1.1634254.5212679 1.1634254 1.1639404v11.8453426c.0000001.6426716-.5207519 1.1639405-1.1634254 1.1639405z" fill="#103635"/></g></g></g><g><g><path d="m63.0329666 37.4524078c.0293312 5.8215637-4.874115 10.4612617-10.6565704 10.6566277-.1269836.0097809-.2637482.0097809-.3907356.0097809h-36.883173c-.4102898 0-.8106833-.019558-1.2111959-.0586052-4.922883-.4786148-9.250185-3.8485107-10.5297031-8.6933556-1.6508181-6.2416306 2.0707662-11.9655399 7.5506001-13.5185833.4395027-.1172104.7423611-.48839.7813511-.9377289.6055984-6.349062 5.9681044-11.3306103 12.4831419-11.3306103 3.0769958 0 5.9095592 1.1134825 8.07798 2.9693851.4102898.3418503 1.0158882.2930222 1.3870659-.0879364 1.4066238-1.4162807 3.3504066-2.2954054 5.5090485-2.2954054 3.1843071 0 5.9193344 1.9145079 7.1109772 4.6494761.2050858.4688358.722805.7032528 1.2111969.5762653.5274963-.1367035 1.0744324-.2050838 1.6506996-.1855888 2.862011.0781593 5.313736 2.3638477 5.616478 5.2258015.0391083.4102306.0391083.8009663 0 1.1818638-.058548.498167.2050819.986557.6740379 1.1526508 4.4149397 1.5530453 7.5894697 5.7434655 7.6188009 10.6859627z" fill="#ff61db"/></g></g><g><path d="m36.0324478 4.7766843c0 1.6769719-1.3565903 3.0335617-3.0336037 3.0335617-1.1248341 0-2.0996704-.6066875-2.6245556-1.5133691-.2590523-.4431262-.40905-.9680119-.40905-1.5201926 0-1.6770139 1.3565903-3.0336037 3.0336056-3.0336037.5521774 0 1.0634575.1431319 1.5065842.4021837.9134636.5181039 1.5270195 1.5065871 1.5270195 2.63142z" fill="#ffcf1a"/></g><g><path d="m36.0324478 4.7766843c0 1.6769719-1.3565903 3.0335617-3.0336037 3.0335617-1.1248341 0-2.0996704-.6066875-2.6245556-1.5133691-.0477238-.0886254-.0954494-.1704268-.1363506-.2658758.3749313.1636028.7975864.2590518 1.2407112.2590518 1.6769714 0 3.0335617-1.3565898 3.0335617-3.0336032 0-.4430845-.0954056-.8589571-.2658348-1.2407112.0886269.0341187.1772537.0818014.2590523.1295259.9134636.5181038 1.5270195 1.506587 1.5270195 2.6314199z" fill="#edc119"/></g><g><g><path d="m55.7597694 4.7766843c0 1.6769719-1.3565903 3.0335617-3.0336037 3.0335617-1.1248322 0-2.0996666-.6066875-2.6245537-1.5133691-.2590523-.4431262-.40905-.9680119-.40905-1.5201926 0-1.6770139 1.3565903-3.0336037 3.0336037-3.0336037.5521812 0 1.0634613.1431319 1.506588.4021837.9134636.5181039 1.5270157 1.5065871 1.5270157 2.63142z" fill="#8553e0"/></g><g><path d="m55.7597694 4.7766843c0 1.6769719-1.3565903 3.0335617-3.0336037 3.0335617-1.1248322 0-2.0996666-.6066875-2.6245537-1.5133691-.0477257-.0886254-.0954475-.1704268-.1363487-.2658758.3749313.1636028.7975845.2590518 1.2407112.2590518 1.6769714 0 3.0335617-1.3565898 3.0335617-3.0336032 0-.4430845-.0954094-.8589571-.2658348-1.2407112.0886269.0341187.1772499.0818014.2590523.1295259.9134636.5181038 1.5270157 1.506587 1.5270157 2.6314199z" fill="#7240cf"/></g><g><path d="m16.304348 4.7766843c0 1.6769719-1.3565903 3.0335617-3.0336037 3.0335617-1.1248331 0-2.0996685-.6066875-2.6245546-1.5133691-.2590523-.4431262-.409049-.9680119-.409049-1.5201926 0-1.6770139 1.3565893-3.0336037 3.0336037-3.0336037.5521803 0 1.0634604.1431319 1.5065861.4021837.9134644.5181039 1.5270175 1.5065871 1.5270175 2.63142z" fill="#ee3831"/></g><g><path d="m16.304348 4.7766843c0 1.6769719-1.3565903 3.0335617-3.0336037 3.0335617-1.1248331 0-2.0996685-.6066875-2.6245546-1.5133691-.0477247-.0886254-.0954495-.1704268-.1363497-.2658758.3749304.1636028.7975855.2590518 1.2407112.2590518 1.6769724 0 3.0335617-1.3565898 3.0335617-3.0336032 0-.4430845-.0954075-.8589571-.2658339-1.2407112.088625.0341187.1772499.0818014.2590513.1295259.9134646.5181038 1.5270177 1.506587 1.5270177 2.6314199z" fill="#d6332c"/></g></g><g><g opacity=".1"><path d="m52.3763962 43.9675064v4.1415291c-.1269836.0097809-.2637482.0097809-.3907356.0097809h-36.883173c-.4102898 0-.8106833-.019558-1.2111959-.0586052v-4.0927048c0-1.1819267.8889027-2.1977539 2.0609894-2.3637886l1.9046698-.2637482c.1563187-.4005127.3126373-.8009682.498167-1.1917038l-1.1623096-1.5334892c-.713028-.947506-.6251526-2.2856903.2148628-3.1257057l4.2490826-4.2490215c.4395027-.4492798 1.0451012-.6934738 1.6800308-.6934738.5177212 0 1.0353241.1660347 1.4456139.478611l1.5238323 1.1623707c.3906155-.1758156.7911282-.3419094 1.2014179-.498167l.2637501-1.8949547c.1561985-1.1819229 1.1720867-2.0707664 2.3637276-2.0707664h5.9974346c1.1916428 0 2.2074127.8986206 2.3736267 2.0707664l.2539711 1.8949547c.4101715.1562576.8105659.3223515 1.2014198.498167l1.5237122-1.1623707c.4200668-.3125763.9280128-.478611 1.4456139-.478611.6349297 0 1.2405281.244194 1.6899261.6934738l4.2390671 4.2490215c.8401375.8302383.9377899 2.1781998.2149849 3.1257057l-1.1624298 1.5334892c.1856499.3907356.3517456.7911911.4981651 1.1917038l1.9046707.2637482c1.1722067.1660347 2.0611075 1.1818619 2.0611075 2.3637886z"/></g><g><path d="m50.4230194 49.9701843v-6.00214c0-.2164803-.1598129-.3997269-.374279-.4291611l-2.8465309-.3907013c-.1665039-.0228539-.3013954-.1417351-.3496094-.3027382-.2790108-.931694-.6467018-1.8237228-1.0995789-2.6649857-.0796089-.1478806-.0679245-.3262329.0335808-.4600372l1.7337761-2.28545c.1308365-.1724701.1142693-.4150467-.0388031-.568119l-4.2440987-4.2441368c-.1530724-.1530762-.3956528-.1696434-.568119-.0388069l-2.2854958 1.7338181c-.1338005.1015053-.3121567.1131897-.460041.0335808-.8412895-.4528809-1.7332916-.8206062-2.6649818-1.0996246-.1610031-.048214-.2798805-.1831017-.3027344-.3496056l-.3907013-2.8465328c-.029438-.214468-.2126846-.3742809-.4291611-.3742809h-6.0020981c-.2164783 0-.399725.1598129-.4291611.3742809l-.3907013 2.8465328c-.0228539.1665039-.1417332.3013916-.3027344.3496056-.9316902.2790184-1.8236923.6467438-2.6649837 1.0996246-.1478825.0796089-.3262386.0679245-.460041-.0335808l-2.2854939-1.7338219c-.1724682-.1308365-.4150467-.1142654-.568119.0388069l-4.2441387 4.2441406c-.1530743.1530724-.1696434.3956528-.0388069.568119l1.7338219 2.2854996c.1015034.1338005.1131916.312149.0335884.4600296-.4528522.8412628-.8205738 1.7332878-1.0995884 2.6649513-.0482159.1609993-.1831017.2798767-.3496056.3027306l-2.8465347.3907013c-.214468.0294342-.3742809.2126808-.3742809.4291611v6.00214c0 .2164764.1598129.3997231.3742809.4291611l2.8465385.3907013c.166502.0228539.3013897.1417274.3496094.3027229.2790337.9316635.646698 1.8236885 1.0995712 2.6649551.079607.1478806.0679226.3262329-.0335827.4600372l-1.7338181 2.2854958c-.1308365.1724663-.1142673.4150429.0388069.5681152l4.2441387 4.2441406c.1530724.1530724.3956509.1696434.568119.0388069l2.2854939-1.7338181c.1338024-.1015053.3121586-.1131935.460041-.0335846.8412914.4528847 1.7332935.82061 2.6649837 1.0996246.1610012.048214.2798805.1831017.3027344.3496056l.3907013 2.8464928c.0294361.2144661.2126827.374279.4291611.374279h6.0020981c.2164764 0 .3997231-.1598129.4291611-.374279l.3907013-2.8464928c.0228539-.1665039.1417313-.3013916.3027344-.3496056.9316902-.2790146 1.8236923-.64674 2.6649818-1.0996246.1478844-.0796089.3262405-.0679207.460041.0335846l2.2854958 1.7338181c.1724663.1308365.4150467.1142654.568119-.0388107l4.2440948-4.244133c.1530724-.1530762.1696434-.3956528.0388031-.568119l-1.7338142-2.2854538c-.1015053-.1338005-.1131935-.3121567-.0335884-.4600372.4528809-.841301.8205795-1.7333336 1.0996208-2.6649971.0482178-.1609955.1831055-.2798691.3496056-.3027229l2.8465424-.3907013c.2144662-.029438.3742791-.2126846.3742791-.4291611z" fill="#8553e0"/></g><g><path d="m43.4700203 46.969738c0 3.3008652-1.5504875 6.2397766-3.9599762 8.1306229-.7617226.6050644-1.6153145 1.1020775-2.5337296 1.4640312-1.1885071.4808235-2.485096.7401276-3.8411064.7401276-1.3560123 0-2.6525707-.259304-3.8411083-.7401276-.9184151-.3619537-1.772007-.8589668-2.5337315-1.4640312-2.4094868-1.8908463-3.9599762-4.8297577-3.9599762-8.1306229 0-5.7103539 4.6244621-10.334816 10.334816-10.334816s10.3348122 4.6244622 10.3348122 10.334816z" fill="#fff"/></g></g><g><g><path d="m26.0126801 50.3427467c-.1332264 0-.2379723-.0413475-.3142338-.1240425-.0762615-.0826912-.1139336-.1842194-.1139336-.3050461 0-.0505333.0156212-.1143913.0468597-.1906509l2.4302635-5.7366142c.0450211-.1015282.1130142-.1924934.204895-.2719688.0918808-.0790176.2085705-.118988.3482304-.118988h.0955563c.1460915 0 .2627811.0399704.3519058.118988.0891247.0794754.1561985.1704407.2003021.2719688l2.4302616 5.7366142c.0312405.0762596.0477791.1401176.0477791.1906509 0 .1208267-.0385914.2223549-.1148529.3050461-.0762615.082695-.1810055.1240425-.3142338.1240425-.1966267 0-.3335285-.0891266-.40979-.2669182l-.6192818-1.4866371h-3.2406559l-.6192799 1.4866371c-.0762614.1777916-.2122458.2669182-.4097918.2669182zm1.3635196-2.5446548h2.5726795l-1.2863388-3.0973206z" fill="#ee3831"/></g><g><path d="m33.5699234 50.3427467c-.1212845 0-.2223511-.0413475-.3050461-.1240425-.0826912-.0826912-.1240387-.1842194-.1240387-.3050461v-5.8321686c0-.1203651.0413475-.223732.1240387-.309639.082695-.0859108.1837616-.1286354.3050461-.1286354h2.1729965c.4823761 0 .8875732.0620193 1.2146721.1856003.327095.1240387.5880394.2894249.7819099.4957008.1929512.2067337.3335266.4336777.4189796.6813011.0854492.2480774.1286316.4989128.1286316.7529678 0 .2540512-.0431824.5048866-.1286316.7529678-.085453.2476196-.2260284.4750252-.4189796.6812973-.1938705.2062759-.4548149.3716621-.7819099.4957008-.3270988.1235809-.732296.1856003-1.2146721.1856003h-1.7347221v2.0393066c0 .1208267-.0431824.2223549-.1286316.3050461-.085453.0826952-.1892777.1240427-.3096428.1240427zm.4382744-3.2879753h1.6483536c.4768639 0 .8416328-.0652351 1.0961418-.1952477.2535934-.1300125.4290886-.2953987.5237274-.4957008.0955544-.1998405.1433334-.4015236.1433334-.6050377 0-.2094917-.0477791-.4130096-.1433334-.6100922-.0946388-.1966286-.270134-.3601761-.5237274-.4906464-.254509-.1300125-.619278-.1952515-1.0961418-.1952515h-1.6483536z" fill="#ee3831"/></g><g><path d="m39.9740562 50.3427467c-.1212845 0-.2223549-.0413475-.3050461-.1240425-.082695-.0826912-.1240387-.1842194-.1240387-.3050461v-5.8799477c0-.1203651.0413437-.223732.1240387-.309639.0826912-.0859108.1837616-.1286354.3050461-.1286354.1203651 0 .2241898.0427246.309639.1286354.0854492.085907.1286354.1892738.1286354.309639v5.8799477c0 .1208267-.0431862.2223549-.1286354.3050461-.0854492.082695-.1892738.1240425-.309639.1240425z" fill="#ee3831"/></g></g></g></g></svg>