<svg id="Layer_1" viewBox="0 0 512 512" xmlns="http://www.w3.org/2000/svg" data-name="Layer 1"><path d="m405.172 219.953h-14.05v-23.843c0-3.866-3.134-7-7-7h-35.563v-27.453c0-3.866-3.134-7-7-7h-22.736c-3.866 0-7 3.134-7 7v27.453h-35.563c-3.866 0-7 3.134-7 7v23.843h-14.05c-3.866 0-7 3.134-7 7v274.047c0 3.866 3.134 7 7 7h149.963c3.866 0 7-3.134 7-7v-274.047c0-3.866-3.134-7-7-7zm-79.35-51.296h8.736v20.453h-8.736zm-42.563 34.453h93.863v16.843h-93.863zm66.863 290.89h-39.864v-57.335c0-.764.645-1.409 1.409-1.409h37.046c.764 0 1.409.646 1.409 1.409zm48.05 0h-34.05v-57.335c0-8.496-6.913-15.409-15.409-15.409h-37.046c-8.496 0-15.409 6.913-15.409 15.409v57.335h-34.049v-260.047h135.963zm96.064-396.752h-133.156l-183.718-74.944c-3.949-10.674-14.229-18.304-26.259-18.304-15.433 0-27.988 12.555-27.988 27.988 0 .58.023 1.154.058 1.725l-68.37 58.134c-.244-.015-.486-.037-.734-.037h-31.119c-6.72 0-12.187 5.467-12.187 12.187v31.119c0 6.72 5.467 12.187 12.187 12.187h31.119c4.225 0 7.952-2.163 10.139-5.438h38.502v.324c0 8.257 6.718 14.976 14.976 14.976h4.395l-14.552 290.922h-11.653c-16.518 0-29.957 13.439-29.957 29.958v22.957c0 3.866 3.134 7 7 7h156.368c3.866 0 7-3.134 7-7v-22.957c0-16.519-13.439-29.958-29.957-29.958h-11.653l-14.552-290.922h4.395c8.257 0 14.976-6.718 14.976-14.976v-.324h225.933c-.11.932-.172 1.877-.172 2.838 0 3.933.95 7.646 2.623 10.932v79.323c-4.901 5.264-7.908 12.315-7.908 20.057 0 13.83 9.581 25.459 22.452 28.614-.064 3.934-1.526 6.425-3.87 9.124-.702.809-1.562 1.703-2.472 2.649-3.022 3.144-6.448 6.708-8.173 11.178-3.106 8.051-1.525 17.164 4.027 23.213 4.357 4.75 10.724 7.474 17.466 7.474 11.583 0 21.463-8.66 22.981-20.143.507-3.833-2.189-7.35-6.022-7.857-3.835-.504-7.351 2.189-7.857 6.022-.602 4.548-4.514 7.978-9.102 7.978-2.789 0-5.462-1.098-7.151-2.939-1.954-2.129-2.469-5.63-1.281-8.709.71-1.841 3.098-4.325 5.205-6.516.991-1.031 2.015-2.097 2.95-3.173 3.369-3.88 7.226-9.464 7.303-18.298 12.881-3.148 22.472-14.782 22.472-28.619 0-7.743-3.007-14.793-7.908-20.057v-79.323c1.673-3.286 2.623-6.999 2.623-10.932 0-.961-.062-1.906-.172-2.838h20.794c3.866 0 7-3.134 7-7v-30.615c0-3.866-3.134-7-7-7zm-309.717-15.299h-14.852v-29.042c4.372-3.885 7.522-9.113 8.794-15.034l145.552 59.375h-124.519v-.324c0-8.257-6.718-14.976-14.976-14.976zm-33.417-21.973c1.555 0 3.078-.133 4.565-.378v22.351h-9.13v-22.352c1.487.245 3.01.378 4.565.378zm0-41.976c7.713 0 13.987 6.275 13.987 13.988s-6.274 13.988-13.987 13.988-13.988-6.275-13.988-13.988 6.275-13.988 13.988-13.988zm-18.565 34.907v29.042h-14.851c-8.258 0-14.976 6.718-14.976 14.976v.324h-32.648l58.036-49.347c1.278 1.841 2.769 3.521 4.44 5.006zm-80.281 80.395h-27.492v-27.492h27.492zm14-5.438v-16.615h36.455v16.615zm61.48 196.497 43.387 32.61-46.615 31.936 3.229-64.546zm49.022 45.72 3.784 75.645-52.067-42.567zm-44.05-59.496 39.444-32.594 3.235 64.672zm37.937-62.718-34.167-29.108 31.236-29.482zm-3.088 15.76-38.368 31.705 3.089-61.76zm-44.447 153.228 38.201 31.231h-39.763zm99.178 61.189v15.957h-142.369v-15.957c0-8.8 7.158-15.958 15.957-15.958h110.453c8.799 0 15.957 7.158 15.957 15.958zm-55.493-307.15-32.937 31.086 2.242-44.817h30.008l.687 13.73zm18.701-28.706c0 .52-.456.976-.976.976h-66.833c-.52 0-.976-.456-.976-.976v-45.263c0-.52.456-.976.976-.976h66.833c.52 0 .976.456.976.976zm263.94 83.362c-2.612 0-5.143.346-7.556.987v-58.871c2.379.785 4.917 1.216 7.556 1.216s5.177-.431 7.556-1.216v58.871c-2.413-.641-4.944-.987-7.556-.987zm0-70.669c-5.613 0-10.179-4.566-10.179-10.179s4.566-10.179 10.179-10.179 10.179 4.566 10.179 10.179-4.566 10.179-10.179 10.179zm0 115.598c-8.527 0-15.464-6.937-15.464-15.464s6.937-15.464 15.464-15.464 15.464 6.937 15.464 15.464-6.937 15.464-15.464 15.464zm37.801-142.615h-20.472c-4.396-4.523-10.538-7.341-17.329-7.341s-12.933 2.818-17.329 7.341h-232.612v-16.615h287.741v16.615zm-198.079 173.052h29.661c3.866 0 7-3.134 7-7v-29.661c0-3.866-3.134-7-7-7h-29.661c-3.866 0-7 3.134-7 7v29.661c0 3.866 3.134 7 7 7zm7-29.661h15.661v15.661h-15.661zm45.405 29.661h29.661c3.866 0 7-3.134 7-7v-29.661c0-3.866-3.134-7-7-7h-29.661c-3.866 0-7 3.134-7 7v29.661c0 3.866 3.134 7 7 7zm7-29.661h15.661v15.661h-15.661zm-59.405 81.838h29.661c3.866 0 7-3.134 7-7v-29.661c0-3.866-3.134-7-7-7h-29.661c-3.866 0-7 3.134-7 7v29.661c0 3.866 3.134 7 7 7zm7-29.661h15.661v15.661h-15.661zm45.405 29.661h29.661c3.866 0 7-3.134 7-7v-29.661c0-3.866-3.134-7-7-7h-29.661c-3.866 0-7 3.134-7 7v29.661c0 3.866 3.134 7 7 7zm7-29.661h15.661v15.661h-15.661zm-59.405 81.838h29.661c3.866 0 7-3.134 7-7v-29.661c0-3.866-3.134-7-7-7h-29.661c-3.866 0-7 3.134-7 7v29.661c0 3.866 3.134 7 7 7zm7-29.661h15.661v15.661h-15.661zm45.405 29.661h29.661c3.866 0 7-3.134 7-7v-29.661c0-3.866-3.134-7-7-7h-29.661c-3.866 0-7 3.134-7 7v29.661c0 3.866 3.134 7 7 7zm7-29.661h15.661v15.661h-15.661z"/></svg>