<svg id="Layer_1" viewBox="0 0 128 128" xmlns="http://www.w3.org/2000/svg" data-name="Layer 1"><path d="m70.98206 61.25781c-1.28906-.72656-2.54541-1.56592-3.76074-2.37744-4.33105-2.89111-8.80908-5.88031-16.71924-5.88031a62.73238 62.73238 0 0 0 -25.33838 5.63715 1.99984 1.99984 0 0 0 -1.16357 1.81689v2.5459a2.0001 2.0001 0 0 0 2 2h44a1.99986 1.99986 0 0 0 .98193-3.74219zm-24.98194-.25781h-16.19678a60.09265 60.09265 0 0 1 16.19678-3.79706zm4 0v-3.9917c.168-.00171.33307-.0083.502-.0083a21.325 21.325 0 0 1 12.66788 4z"/><path d="m96.6427 64.05713c-.791-4.5791-6.60107-7.15918-18.83936-8.36572-2.75391-.272-5.16895-1.77484-7.96484-3.51556-4.41992-2.75146-9.92139-6.17578-19.1416-6.17578-13.72314 0-29.09863 5.75244-31.72021 6.77393h-3.51319a3.30622 3.30622 0 0 0 -3.07617 2.11029 13.21809 13.21809 0 0 0 -.02441 7.63623 5.022 5.022 0 0 0 -.624 1.08691c-1.65088 3.87592-.1333 12.18256.65137 14.11322a4.03213 4.03213 0 0 0 2.646 2.36426l5.90967 1.61517c.11725.03217 1.39685.061 3.50128.0871a8.97674 8.97674 0 0 0 1.08636 2.21271h-12.53348a12.99363 12.99363 0 0 0 -1 25.94922v16.0506a2 2 0 0 0 4 0v-4.333h76v4.333a2 2 0 1 0 4 0v-16.05061a12.99363 12.99363 0 0 0 -1-25.94922h-14.53712a9.00468 9.00468 0 0 0 1.01331-2.00336c1.79163.00226 2.8562.00336 2.935.00336h1.07169c5.09424 0 8.56885-1.2959 10.32617-3.85248a7.45148 7.45148 0 0 0 .916-6.03809 25.93556 25.93556 0 0 0 -.08247-8.05218zm-4.64258 53.60962h-76v-7.667h76zm3-29.66687a8.99994 8.99994 0 1 1 0 17.99988h-82a8.99994 8.99994 0 1 1 0-17.99988zm-67-8.99994a5 5 0 1 1 5 4.99994 5.00589 5.00589 0 0 1 -5-4.99994zm12.46338 4.99994a8.99272 8.99272 0 0 0 1.04858-2.101c7.38843.03033 15.671.05261 23.00116.06836a9.00138 9.00138 0 0 0 1.02411 2.03265zm27.53662-4.99994a5 5 0 1 1 5 4.99994 5.00589 5.00589 0 0 1 -5-4.99994zm19.89111-3.80566h4.94377a2.5581 2.5581 0 0 1 -.32214.6875c-.939 1.36621-3.43555 2.11816-7.02979 2.11816h-1.07182c-.0686 0-.96332-.00165-2.47083-.00464a8.99529 8.99529 0 0 0 -17.87451-.0401c-7.10187-.0174-15.04-.03882-22.14117-.06232a8.9909 8.9909 0 0 0 -17.83685-.08124c-1.14423-.00922-1.94232-.01843-2.2948-.02753l-5.69824-1.57129a29.1095 29.1095 0 0 1 -1.021-9.67572h2.16943a2.00024 2.00024 0 0 0 0-4.00049h-.7c-.00568-.01685-.0072-.034-.01337-.05078a11.61667 11.61667 0 0 1 -.55029-5.71191h3.37744a1.99856 1.99856 0 0 0 .74707-.145c.16455-.06592 16.62061-6.62885 30.59277-6.62885 8.07715 0 12.83252 2.96 17.02783 5.57172 3.0874 1.92188 6.00293 3.73682 9.686 4.1001 13.23633 1.30518 15.10254 3.97754 15.29053 5.06592a22.096 22.096 0 0 1 .11334 6.45648h-4.9234a2 2 0 0 0 0 4z"/><path d="m8.00012 96.99982a6 6 0 1 0 6-5.99994 6.00656 6.00656 0 0 0 -6 5.99994zm6-2a2 2 0 1 1 -2 2 2.00229 2.00229 0 0 1 2-2z"/><path d="m30.00012 102.99982a6 6 0 1 0 -6-6 6.00656 6.00656 0 0 0 6 6zm0-8a2 2 0 1 1 -2 2 2.00229 2.00229 0 0 1 2-2z"/><path d="m46.00012 102.99982a6 6 0 1 0 -6-6 6.00656 6.00656 0 0 0 6 6zm0-8a2 2 0 1 1 -2 2 2.00229 2.00229 0 0 1 2-2z"/><path d="m62.00012 102.99982a6 6 0 1 0 -6-6 6.00656 6.00656 0 0 0 6 6zm0-8a2 2 0 1 1 -2 2 2.00229 2.00229 0 0 1 2-2z"/><path d="m78.00012 102.99982a6 6 0 1 0 -6-6 6.00656 6.00656 0 0 0 6 6zm0-8a2 2 0 1 1 -2 2 2.00229 2.00229 0 0 1 2-2z"/><path d="m94.00012 102.99982a6 6 0 1 0 -6-6 6.00656 6.00656 0 0 0 6 6zm0-8a2 2 0 1 1 -2 2 2.00229 2.00229 0 0 1 2-2z"/><path d="m116.00012 12.00024h-34a4.00457 4.00457 0 0 0 -4 3.99994v1h-31a4.00458 4.00458 0 0 0 -4 4v4a4.00453 4.00453 0 0 0 4 3.99994v6a2.0001 2.0001 0 0 0 2 2h2.5835v3a2 2 0 0 0 4 0v-3h3.4165a2.0001 2.0001 0 0 0 2-2v-6h17v1a4.00458 4.00458 0 0 0 4 4h26v26.99988a2.0001 2.0001 0 0 0 2 2h2v44.34979a6.00478 6.00478 0 0 0 -4 5.65v12.99994a2.0001 2.0001 0 0 0 2 2h16a2.0001 2.0001 0 0 0 2-2v-12.99997a6.00478 6.00478 0 0 0 -4-5.65v-44.34976h2a2.0001 2.0001 0 0 0 2-2v-36.99982a12.0137 12.0137 0 0 0 -12-11.99994zm-59 20.99988h-6v-4h6zm21-7.99994h-31v-4h31zm46 98.99951h-12v-10.99993a2.00229 2.00229 0 0 1 2-2h8a2.00229 2.00229 0 0 1 2 2zm-8-16.99994v-43.99975h4v43.99976zm8-47.99976h-12v-24.99987h12zm0-28.99988h-42v-13.99993h34a8.00917 8.00917 0 0 1 8 8z"/><path d="m.7262 12.45825a2.00018 2.00018 0 0 0 -.26807 2.81592l9.5 11.49994a1.99992 1.99992 0 0 0 2.78955.28906l2.55548-2.03949 5.66571 6.31238a1.99975 1.99975 0 0 0 2.7583.209l2.98364-2.45325 2.77515 3.215a2 2 0 0 0 3.02832-2.61328l-2.713-3.14282 2.46881-2.03a2 2 0 0 0 .30518-2.77734l-5.05934-6.46637 2.56525-2.04724a1.99973 1.99973 0 0 0 .30615-2.82227l-7.8335-9.66649a1.99993 1.99993 0 0 0 -3.10742 2.51849l6.56494 8.10107-14.22168 11.34958-8.24756-9.98382a2.00022 2.00022 0 0 0 -2.81591-.26807zm23.66327 5.31384 3.83282 4.8985-5.55615 4.56841-4.23145-4.71448z"/><path d="m112.00012 21.00018h-22a2 2 0 0 0 0 4h22a2 2 0 0 0 0-4z"/></svg>