<svg id="Outline" viewBox="0 0 64 64" xmlns="http://www.w3.org/2000/svg"><path d="m30 28h11c.55 0 1-.45 1-1s-.45-1-1-1h-10v-15.97c3.77.22 7.22 1.68 9.94 3.97h-4.94c-.55 0-1 .45-1 1s.45 1 1 1h6.94c2.32 2.73 3.8 6.2 4.03 10h-1.97c-.55 0-1 .45-1 1s.45 1 1 1h3c.55 0 1-.45 1-1 0-4.1-1.32-7.89-3.54-11h5.72c.41 1.16 1.51 2 2.82 2 1.65 0 3-1.35 3-3s-1.35-3-3-3c-1.3 0-2.4.84-2.82 2h-7.37c-3.47-3.68-8.37-6-13.82-6-.55 0-1 .45-1 1v18c0 .55.45 1 1 1zm24-14c.55 0 1 .45 1 1s-.45 1-1 1-1-.45-1-1 .45-1 1-1z"/><path d="m55 50.18v-14.18c0-.55-.45-1-1-1h-3.42c.28-1.3.42-2.64.42-4 0-.55-.45-1-1-1h-18c-.4 0-.76.24-.92.61s-.08.79.2 1.08l12.45 13c.18.19.44.3.7.31h.02c.26 0 .51-.1.69-.28 2.28-2.18 3.93-4.82 4.89-7.72h2.97v13.18c-.85.3-1.51.97-1.82 1.82h-27.18v-3.11c.66.07 1.32.11 2 .11 4.93 0 9.6-1.87 13.14-5.28.4-.38.41-1.01.03-1.41l-12.17-12.71v-9.6c0-.55-.45-1-1-1s-1 .45-1 1v10c0 .26.1.51.28.69l11.74 12.26c-3.07 2.62-6.94 4.05-11.02 4.05-.68 0-1.34-.05-2-.13v-3.87c0-.55-.45-1-1-1s-1 .45-1 1v3.51c-7.45-1.81-13-8.51-13-16.51 0-9.04 7.09-16.45 16-16.97v2.97c0 .55.45 1 1 1s1-.45 1-1v-4c0-.55-.45-1-1-1-10.48 0-19 8.52-19 19 0 9.1 6.44 16.72 15 18.57v4.43c0 .55.45 1 1 1h28.18c.41 1.16 1.51 2 2.82 2 1.65 0 3-1.35 3-3 0-1.3-.84-2.4-2-2.82zm-10.54-7.61-10.12-10.57h14.63c-.06 1.02-.21 2.02-.44 3h-4.53c-.55 0-1 .45-1 1s.45 1 1 1h3.9c-.77 2.04-1.92 3.93-3.44 5.57zm9.54 11.43c-.55 0-1-.45-1-1s.45-1 1-1 1 .45 1 1-.45 1-1 1z"/><path d="m17.24 30h2.76c.55 0 1-.45 1-1s-.45-1-1-1h-1v-1c0-.55-.45-1-1-1s-1 .45-1 1v1.02c-1.12.12-2 1.06-2 2.21 0 .85.47 1.62 1.24 2l2.63 1.32c.08.04.13.12.13.21 0 .13-.11.24-.24.24h-2.76c-.55 0-1 .45-1 1s.45 1 1 1h1v1c0 .55.45 1 1 1s1-.45 1-1v-1.02c1.12-.12 2-1.06 2-2.21 0-.85-.47-1.62-1.24-2l-2.63-1.32c-.08-.04-.13-.12-.13-.21 0-.13.11-.24.24-.24z"/></svg>