<?xml version="1.0" encoding="utf-8"?>
<!-- Generator: Adobe Illustrator 23.0.6, SVG Export Plug-In . SVG Version: 6.00 Build 0)  -->
<svg version="1.1" id="Layer_1" xmlns="http://www.w3.org/2000/svg" xmlns:xlink="http://www.w3.org/1999/xlink" x="0px" y="0px"
	 viewBox="0 0 512 512" style="enable-background:new 0 0 512 512;" xml:space="preserve">
<style type="text/css">
	.st0{fill:url(#SVGID_1_);}
	.st1{fill:url(#SVGID_2_);}
	.st2{fill:url(#SVGID_3_);}
	.st3{fill:url(#SVGID_4_);}
	.st4{fill:url(#SVGID_5_);}
	.st5{fill:url(#SVGID_6_);}
	.st6{fill:url(#SVGID_7_);}
	.st7{fill:#B4CDE1;}
</style>
<g id="API_System">
	
		<linearGradient id="SVGID_1_" gradientUnits="userSpaceOnUse" x1="-607.0938" y1="746.4688" x2="-590.0814" y2="746.4688" gradientTransform="matrix(10.6667 0 0 -10.6667 6795.667 8218.334)">
		<stop  offset="0" style="stop-color:#FE9661"/>
		<stop  offset="1" style="stop-color:#FFB369"/>
	</linearGradient>
	<path class="st0" d="M461.7,245.3h-131c-5.9,0-10.7,4.8-10.7,10.7c0,5.9,4.8,10.7,10.7,10.7h131c5.9,10.2,18.9,13.7,29.1,7.8
		c10.2-5.9,13.7-18.9,7.8-29.1c-5.9-10.2-18.9-13.7-29.1-7.8C466.2,239.4,463.5,242.1,461.7,245.3z"/>
	
		<linearGradient id="SVGID_2_" gradientUnits="userSpaceOnUse" x1="-610.0995" y1="751.4689" x2="-594.0995" y2="751.4689" gradientTransform="matrix(10.6667 0 0 -10.6667 6795.667 8218.334)">
		<stop  offset="0" style="stop-color:#FE9661"/>
		<stop  offset="1" style="stop-color:#FFB369"/>
	</linearGradient>
	<path class="st1" d="M419,170.7h-67c-2.8,0-5.6,1.1-7.6,3.1l-53.3,53.3c-4.2,4.1-4.2,10.9-0.1,15.1c2,2,4.8,3.2,7.6,3.2
		c2.8,0,5.6-1.1,7.6-3.1l50.1-50.2H419c5.9,10.2,18.9,13.7,29.1,7.8c10.2-5.9,13.7-18.9,7.8-29.1s-18.9-13.7-29.1-7.8
		C423.6,164.7,420.9,167.4,419,170.7z"/>
	
		<linearGradient id="SVGID_3_" gradientUnits="userSpaceOnUse" x1="-613.0958" y1="760.4686" x2="-593.0789" y2="760.4686" gradientTransform="matrix(10.6667 0 0 -10.6667 6795.667 8218.334)">
		<stop  offset="0" style="stop-color:#FE9661"/>
		<stop  offset="1" style="stop-color:#FFB369"/>
	</linearGradient>
	<path class="st2" d="M448,42.7c-11.8,0-21.3,9.6-21.3,21.4c0,1.8,0.2,3.6,0.7,5.4L401,96h-70.3c-5.5,0-2.2-1.4-70.8,55.8
		c-4.5,3.8-5.2,10.5-1.4,15c2,2.5,5.1,3.9,8.2,3.9c5.3,0,2,1.5,67.8-53.3h70.8c2.8,0,5.6-1.1,7.6-3.1l29.7-29.7
		c11.4,3.1,23.1-3.6,26.2-15c3.1-11.4-3.6-23.1-15-26.2C451.9,42.9,449.9,42.7,448,42.7L448,42.7z"/>
	
		<linearGradient id="SVGID_4_" gradientUnits="userSpaceOnUse" x1="-613.095" y1="732.4676" x2="-593.0902" y2="732.4676" gradientTransform="matrix(10.6667 0 0 -10.6667 6795.667 8218.334)">
		<stop  offset="0" style="stop-color:#FE9661"/>
		<stop  offset="1" style="stop-color:#FFB369"/>
	</linearGradient>
	<path class="st3" d="M442.6,427.4l-29.7-29.7c-2-2-4.7-3.1-7.6-3.1h-70.8l-61-50.9c-4.5-3.8-11.3-3.1-15,1.4
		c-3.8,4.5-3.1,11.3,1.4,15l64,53.3c4.2,3.4,1.7,2.5,77.1,2.5l26.5,26.6c-3,11.4,3.8,23.1,15.1,26.1c11.4,3,23.1-3.8,26.1-15.1
		c3-11.4-3.8-23.1-15.1-26.1C449.9,426.5,446.1,426.5,442.6,427.4L442.6,427.4z"/>
	
		<linearGradient id="SVGID_5_" gradientUnits="userSpaceOnUse" x1="-610.0978" y1="741.4706" x2="-594.0978" y2="741.4706" gradientTransform="matrix(10.6667 0 0 -10.6667 6795.667 8218.334)">
		<stop  offset="0" style="stop-color:#FE9661"/>
		<stop  offset="1" style="stop-color:#FFB369"/>
	</linearGradient>
	<path class="st4" d="M419,320h-62.6l-50.1-50.2c-4.2-4.2-11-4.2-15.1,0c-4.2,4.2-4.2,11,0,15.1l53.3,53.3c2,2,4.7,3.1,7.6,3.1h67
		c5.9,10.2,18.9,13.7,29.1,7.8c10.2-5.9,13.7-18.9,7.8-29.1c-5.9-10.2-18.9-13.7-29.1-7.8C423.6,314.1,420.9,316.8,419,320z"/>
	
		<linearGradient id="SVGID_6_" gradientUnits="userSpaceOnUse" x1="-636.0938" y1="746.4688" x2="-613.0938" y2="746.4688" gradientTransform="matrix(10.6667 0 0 -10.6667 6795.667 8218.334)">
		<stop  offset="0" style="stop-color:#54A5FF"/>
		<stop  offset="1" style="stop-color:#8AD3FE"/>
	</linearGradient>
	<path class="st5" d="M256,64v384c0,5.9-4.8,10.7-10.7,10.7h-64c-5.9,0-10.7-4.8-10.7-10.7v-18.9c0.2-4.9-3-9.3-7.7-10.7
		c-10.1-3.1-19.9-7.2-29.2-12.1c-4.1-2.3-9.3-1.6-12.7,1.7l-13.3,13.8c-4.1,4.2-10.9,4.2-15.1,0.1c0,0,0,0-0.1-0.1l-45.1-45.1
		c-4.2-4.1-4.2-10.9-0.1-15.1c0,0,0,0,0.1-0.1l13.3-13.3c3.3-3.4,4-8.6,1.7-12.7c-4.9-9.4-8.9-19.1-12.1-29.2
		c-1.4-4.7-5.8-7.9-10.7-7.7H21.3c-5.9,0-10.7-4.8-10.7-10.7v-64c0-5.9,4.8-10.7,10.7-10.7h18.9c4.9,0.2,9.3-3,10.7-7.7
		c3.1-10.1,7.2-19.9,12.1-29.2c2.3-4.1,1.6-9.3-1.7-12.7l-13.8-13.3c-4.2-4.1-4.2-10.9-0.1-15.1c0,0,0,0,0.1-0.1l45.1-45.1
		c4.1-4.2,10.9-4.2,15.1-0.1c0,0,0,0,0.1,0.1l13.3,13.3c3.4,3.3,8.6,4,12.7,1.7c9.4-4.9,19.1-8.9,29.2-12.1
		c4.7-1.4,7.9-5.8,7.7-10.7V64c0-5.9,4.8-10.7,10.7-10.7h64C251.2,53.3,256,58.1,256,64L256,64z"/>
	
		<linearGradient id="SVGID_7_" gradientUnits="userSpaceOnUse" x1="-617.0938" y1="734.4688" x2="-617.0938" y2="758.4688" gradientTransform="matrix(10.6667 0 0 -10.6667 6795.667 8218.334)">
		<stop  offset="0" style="stop-color:#D3E6F5"/>
		<stop  offset="1" style="stop-color:#F0F7FC"/>
	</linearGradient>
	<circle class="st6" cx="213.3" cy="256" r="128"/>
	<g>
		<path class="st7" d="M227.8,277.3h-14.4c-4,0-7.2,3.2-7.2,7.2v43.3c0,4,3.2,7.2,7.2,7.2s7.2-3.2,7.2-7.2v-7.2h7.2
			c11.9,0,21.6-9.7,21.6-21.6C249.4,287,239.7,277.3,227.8,277.3z M227.8,306.2h-7.2v-14.4h7.2c4,0,7.2,3.2,7.2,7.2
			S231.7,306.2,227.8,306.2z"/>
		<path class="st7" d="M170.1,277.3c-11.9,0-21.6,9.7-21.6,21.6v28.8c0,4,3.2,7.2,7.2,7.2c4,0,7.2-3.2,7.2-7.2v-7.2h14.4v7.2
			c0,4,3.2,7.2,7.2,7.2s7.2-3.2,7.2-7.2V299C191.7,287,182,277.3,170.1,277.3z M162.9,306.2V299c0-4,3.2-7.2,7.2-7.2
			c4,0,7.2,3.2,7.2,7.2v7.2H162.9z"/>
		<path class="st7" d="M271,335c-4,0-7.2-3.2-7.2-7.2v-43.3c0-4,3.2-7.2,7.2-7.2c4,0,7.2,3.2,7.2,7.2v43.3
			C278.2,331.8,275,335,271,335z"/>
	</g>
	<g>
		<path class="st7" d="M143.4,240.1h-3.6v16.1c0,2.1-0.5,3.7-1.4,4.7c-0.9,1-2.2,1.5-3.7,1.5c-1.6,0-2.9-0.5-3.8-1.6
			s-1.3-2.6-1.3-4.6v-38.7c0-2.2,0.5-3.8,1.5-4.8c1-1,2.6-1.5,4.8-1.5h16.6c2.3,0,4.2,0.1,5.9,0.3c1.6,0.2,3.1,0.6,4.4,1.2
			c1.6,0.7,3,1.6,4.2,2.8c1.2,1.2,2.1,2.7,2.8,4.3c0.6,1.6,0.9,3.4,0.9,5.2c0,3.7-1.1,6.7-3.2,9c-2.1,2.2-5.3,3.8-9.6,4.8
			c1.8,1,3.5,2.4,5.2,4.3c1.6,1.9,3.1,3.9,4.4,6c1.3,2.1,2.3,4,3,5.7c0.7,1.7,1.1,2.9,1.1,3.5c0,0.7-0.2,1.3-0.6,2
			c-0.4,0.7-1,1.2-1.7,1.5c-0.7,0.4-1.6,0.6-2.5,0.6c-1.1,0-2.1-0.3-2.9-0.8c-0.8-0.5-1.4-1.2-2-2c-0.6-0.8-1.3-2-2.3-3.6l-4.1-6.8
			c-1.5-2.5-2.8-4.4-3.9-5.7c-1.2-1.3-2.3-2.2-3.5-2.7C146.7,240.4,145.2,240.1,143.4,240.1z M149.3,219h-9.4v13.8h9.1
			c2.4,0,4.5-0.2,6.2-0.6c1.7-0.4,2.9-1.1,3.8-2.2c0.9-1,1.3-2.4,1.3-4.2c0-1.4-0.4-2.6-1.1-3.7c-0.7-1.1-1.7-1.9-2.9-2.4
			C155.1,219.3,152.8,219,149.3,219z"/>
		<path class="st7" d="M213.4,219.2h-22.9v12.3h21.1c1.6,0,2.7,0.3,3.5,1c0.8,0.7,1.1,1.6,1.1,2.8c0,1.1-0.4,2.1-1.1,2.8
			c-0.8,0.7-1.9,1.1-3.5,1.1h-21.1v14.3h23.7c1.6,0,2.8,0.4,3.6,1.1c0.8,0.7,1.2,1.7,1.2,3c0,1.2-0.4,2.2-1.2,2.9
			c-0.8,0.7-2,1.1-3.6,1.1h-27.7c-2.2,0-3.8-0.5-4.8-1.5c-1-1-1.5-2.6-1.5-4.8v-37.8c0-1.5,0.2-2.7,0.7-3.6c0.4-0.9,1.1-1.6,2-2
			c0.9-0.4,2.1-0.6,3.5-0.6h26.9c1.6,0,2.8,0.4,3.6,1.1c0.8,0.7,1.2,1.7,1.2,2.8c0,1.2-0.4,2.1-1.2,2.9
			C216.2,218.9,215,219.2,213.4,219.2z"/>
		<path class="st7" d="M265.3,246.5c0,3-0.8,5.8-2.3,8.2s-3.9,4.3-6.9,5.7s-6.6,2.1-10.7,2.1c-5,0-9-0.9-12.3-2.8
			c-2.3-1.3-4.1-3.1-5.6-5.4c-1.4-2.3-2.1-4.4-2.1-6.6c0-1.2,0.4-2.3,1.3-3.2c0.9-0.9,1.9-1.3,3.3-1.3c1.1,0,2,0.3,2.7,1
			c0.7,0.7,1.4,1.7,1.9,3.1c0.6,1.6,1.3,2.9,2.1,4c0.7,1.1,1.8,2,3.1,2.7c1.3,0.7,3.1,1,5.3,1c3,0,5.5-0.7,7.4-2.1
			c1.9-1.4,2.8-3.2,2.8-5.3c0-1.7-0.5-3-1.5-4.1c-1-1-2.3-1.8-3.9-2.4s-3.8-1.1-6.5-1.7c-3.6-0.8-6.6-1.8-9.1-3
			c-2.4-1.1-4.4-2.7-5.8-4.6c-1.4-2-2.1-4.4-2.1-7.3c0-2.8,0.8-5.2,2.3-7.4c1.5-2.1,3.7-3.8,6.5-5c2.9-1.2,6.2-1.7,10.1-1.7
			c3.1,0,5.8,0.4,8,1.1c2.3,0.8,4.1,1.8,5.6,3.1c1.5,1.3,2.6,2.6,3.3,4c0.7,1.4,1,2.8,1,4.1c0,1.2-0.4,2.3-1.3,3.3
			c-0.9,1-1.9,1.5-3.2,1.5c-1.2,0-2.1-0.3-2.7-0.9c-0.6-0.6-1.3-1.5-2-2.9c-0.9-1.9-2-3.4-3.3-4.4s-3.3-1.6-6.2-1.6
			c-2.6,0-4.7,0.6-6.4,1.7c-1.6,1.2-2.4,2.5-2.4,4.2c0,1,0.3,1.9,0.8,2.6c0.5,0.7,1.3,1.4,2.3,1.9c1,0.5,1.9,0.9,2.9,1.2
			c1,0.3,2.6,0.7,4.9,1.3c2.8,0.7,5.4,1.4,7.7,2.2c2.3,0.8,4.3,1.8,5.9,2.9c1.6,1.1,2.9,2.6,3.8,4.3
			C264.8,241.9,265.3,244,265.3,246.5z"/>
		<path class="st7" d="M306.5,219.8h-11.1v36.5c0,2.1-0.5,3.7-1.4,4.7c-0.9,1-2.1,1.5-3.6,1.5c-1.5,0-2.7-0.5-3.7-1.5
			s-1.4-2.6-1.4-4.7v-36.5h-11.1c-1.7,0-3-0.4-3.9-1.1c-0.8-0.8-1.3-1.8-1.3-3c0-1.3,0.4-2.3,1.3-3.1c0.9-0.8,2.2-1.1,3.8-1.1h32.4
			c1.8,0,3.1,0.4,3.9,1.2c0.9,0.8,1.3,1.8,1.3,3.1c0,1.3-0.4,2.3-1.3,3C309.6,219.4,308.3,219.8,306.5,219.8z"/>
	</g>
</g>
</svg>
