<?xml version="1.0" encoding="utf-8"?>
<!-- Generator: Adobe Illustrator 23.0.6, SVG Export Plug-In . SVG Version: 6.00 Build 0)  -->
<svg version="1.1" id="Layer_1" xmlns="http://www.w3.org/2000/svg" xmlns:xlink="http://www.w3.org/1999/xlink" x="0px" y="0px"
	 viewBox="0 0 64 64" style="enable-background:new 0 0 64 64;" xml:space="preserve">
<style type="text/css">
	.st0{fill-rule:evenodd;clip-rule:evenodd;fill:#FFFFFF;}
</style>
<path class="st0" d="M56,6c3.3,0,6,2.7,6,6v40c0,3.3-2.7,6-6,6H8c-3.3,0-6-2.7-6-6V12c0-3.3,2.7-6,6-6H56z M42,10H22v14
	c0,0.7,0.3,1.3,0.9,1.6c0.5,0.4,1.2,0.5,1.8,0.2l7.3-2.7l7.3,2.7c0.6,0.2,1.3,0.1,1.8-0.2c0.5-0.4,0.9-1,0.9-1.6V10z M35,51
	c0-1.1,0.9-2,2-2h16c1.1,0,2,0.9,2,2s-0.9,2-2,2H37C35.9,53,35,52.1,35,51z M48.6,38.6c0.8-0.8,2-0.8,2.8,0c0.8,0.8,0.8,2,0,2.8
	l-5,5c-0.8,0.8-2,0.8-2.8,0l-5-5c-0.8-0.8-0.8-2,0-2.8c0.8-0.8,2-0.8,2.8,0l1.6,1.6V31c0-1.1,0.9-2,2-2s2,0.9,2,2v9.2L48.6,38.6z"/>
</svg>
