<svg id="Layer_1" height="512" viewBox="0 0 50 50" width="512" xmlns="http://www.w3.org/2000/svg"><g><g style="fill:none;stroke:#000;stroke-linecap:round;stroke-linejoin:round;stroke-miterlimit:10;stroke-width:1.5"><g><path d="m36.3 37.4 5.1-3.2c.3-.2.5-.5.5-.9 0-.2 0-.3-.1-.5-.3-.5-.9-.8-1.5-.5 0 0-2.9 1.3-4 1.6-1.8.6-4.9 2-6.4 3.5-1.3 1.4-1.6 4.3-1.7 6.5"/><path d="m41.8 32.8 4.3-6.3c.2-.3.6-.5 1-.5.1 0 .3 0 .4.1.6.2.9 1 .6 1.6-1.5 3-5.2 10.6-7.3 12.1-1.3.9-5.3 1-6.6 2-.5.4-.7 1.4-.8 2.2"/></g><path d="m27.3 48.3v-3.4c0-.6.5-1 1-1h7.6c.6 0 1 .5 1 1v3.4"/><path d="m35 46.6h-.6"/></g><g style="fill:none;stroke:#000;stroke-linecap:round;stroke-linejoin:round;stroke-miterlimit:10;stroke-width:1.5"><g><path d="m13.7 37.4-5.1-3.2c-.3-.2-.5-.5-.5-.9 0-.2 0-.3.1-.5.3-.5.9-.8 1.5-.5 0 0 2.9 1.3 4 1.6 1.8.6 4.9 2 6.4 3.5 1.3 1.4 1.6 4.3 1.7 6.5"/><path d="m8.2 32.8-4.3-6.3c-.2-.3-.6-.5-1-.5-.1 0-.3 0-.4.1-.6.2-.9 1-.6 1.6 1.5 3 5.2 10.6 7.3 12.1 1.3.9 5.3 1 6.6 2 .5.4.7 1.4.8 2.2"/></g><path d="m22.7 48.3v-3.4c0-.6-.5-1-1-1h-7.6c-.6 0-1 .5-1 1v3.4"/><path d="m15.6 46.6h-.6"/></g><g><g><g><g><g style="fill:none;stroke:#000;stroke-linecap:round;stroke-linejoin:round;stroke-miterlimit:10;stroke-width:1.5"><path d="m6.2 1.8c-2.3 1.7-8.7 9.3 0 11.3 8.7-2 2.3-9.6 0-11.3z"/><path d="m6.2 8v6.6"/></g></g></g></g></g><g><g><g><g><g style="fill:none;stroke:#000;stroke-linecap:round;stroke-linejoin:round;stroke-miterlimit:10;stroke-width:1.5"><path d="m43.8 1.8c-2.3 1.7-8.7 9.3 0 11.3 8.7-2 2.3-9.6 0-11.3z"/><path d="m43.8 8v6.6"/></g></g></g></g></g><g><g><g><g><g style="fill:none;stroke:#000;stroke-linecap:round;stroke-linejoin:round;stroke-miterlimit:10;stroke-width:1.5"><g><path d="m25 7.3c-2.3 1.7-8.7 9.3 0 11.3 8.7-2 2.3-9.6 0-11.3z"/><path d="m25 11.6v8.5"/></g><g><path d="m25 16.8 1.6-1.5"/><path d="m25 14.2 1.6-1.5"/><path d="m25 16.8-1.6-1.5"/><path d="m25 14.2-1.6-1.5"/></g></g></g></g></g><g style="fill:none;stroke:#000;stroke-linecap:round;stroke-linejoin:round;stroke-miterlimit:10;stroke-width:1.5"><circle cx="25" cy="13.7" r="11.9"/><circle cx="25" cy="13.7" r="9.2"/><path d="m27.4 25.4v8.6c0 1.3-1.1 2.4-2.4 2.4s-2.4-1.1-2.4-2.4v-8.6"/></g></g></g></svg>