<?xml version="1.0" encoding="UTF-8" standalone="no"?>
<!-- Created with Inkscape (http://www.inkscape.org/) -->

<svg
   version="1.1"
   id="svg2469"
   xml:space="preserve"
   width="682.66669"
   height="682.66669"
   viewBox="0 0 682.66669 682.66669"
   xmlns="http://www.w3.org/2000/svg"
   xmlns:svg="http://www.w3.org/2000/svg"><defs
     id="defs2473"><clipPath
       clipPathUnits="userSpaceOnUse"
       id="clipPath2483"><path
         d="M 0,512 H 512 V 0 H 0 Z"
         id="path2481" /></clipPath></defs><g
     id="g2475"
     transform="matrix(1.3333333,0,0,-1.3333333,0,682.66667)"><g
       id="g2477"><g
         id="g2479"
         clip-path="url(#clipPath2483)"><g
           id="g2485"
           transform="translate(426.4922,474.2266)"><path
             d="m 0,0 c 16.578,0 30.008,-13.436 30.008,-30.022 0,-16.559 -13.43,-30.022 -30.008,-30.022 -16.578,0 -30.009,13.463 -30.009,30.022 C -30.009,-13.436 -16.578,0 0,0 Z"
             style="fill:none;stroke:#000000;stroke-width:15;stroke-linecap:round;stroke-linejoin:round;stroke-miterlimit:10;stroke-dasharray:none;stroke-opacity:1"
             id="path2487" /></g><g
           id="g2489"
           transform="translate(380.6299,379.0024)"><path
             d="m 0,0 c 0,18.538 11.146,34.594 27.055,41.814 m 37.615,0 C 80.579,34.594 91.725,18.538 91.725,0"
             style="fill:none;stroke:#000000;stroke-width:15;stroke-linecap:round;stroke-linejoin:round;stroke-miterlimit:10;stroke-dasharray:none;stroke-opacity:1"
             id="path2491" /></g><g
           id="g2493"
           transform="translate(426.4922,362.2212)"><path
             d="m 0,0 c 39.146,0 71.105,31.974 71.105,71.14 0,39.193 -31.959,71.139 -71.105,71.139 -39.175,0 -71.105,-31.946 -71.105,-71.139 C -71.105,31.974 -39.175,0 0,0 Z"
             style="fill:none;stroke:#000000;stroke-width:15;stroke-linecap:round;stroke-linejoin:round;stroke-miterlimit:10;stroke-dasharray:none;stroke-opacity:1"
             id="path2495" /></g><g
           id="g2497"
           transform="translate(430.8945,119.5054)"><path
             d="m 0,0 c 16.578,0 30.008,-13.464 30.008,-30.022 0,-16.586 -13.43,-30.022 -30.008,-30.022 -16.551,0 -30.009,13.436 -30.009,30.022 C -30.009,-13.464 -16.551,0 0,0 Z"
             style="fill:none;stroke:#000000;stroke-width:15;stroke-linecap:round;stroke-linejoin:round;stroke-miterlimit:10;stroke-dasharray:none;stroke-opacity:1"
             id="path2499" /></g><g
           id="g2501"
           transform="translate(385.0322,24.2534)"><path
             d="m 0,0 c 0,18.538 11.146,34.622 27.055,41.842 m 37.642,0 C 80.606,34.622 91.725,18.538 91.725,0"
             style="fill:none;stroke:#000000;stroke-width:15;stroke-linecap:round;stroke-linejoin:round;stroke-miterlimit:10;stroke-dasharray:none;stroke-opacity:1"
             id="path2503" /></g><g
           id="g2505"
           transform="translate(430.8945,7.5)"><path
             d="m 0,0 c 39.175,0 71.105,31.946 71.105,71.139 0,39.166 -31.93,71.14 -71.105,71.14 -39.147,0 -71.105,-31.974 -71.105,-71.14 C -71.105,31.946 -39.147,0 0,0 Z"
             style="fill:none;stroke:#000000;stroke-width:15;stroke-linecap:round;stroke-linejoin:round;stroke-miterlimit:10;stroke-dasharray:none;stroke-opacity:1"
             id="path2507" /></g><g
           id="g2509"
           transform="translate(372.3545,318.4004)"><path
             d="m 0,0 c -0.529,0.948 -1.059,1.923 -1.616,2.843 -23.098,39.333 -65.839,65.76 -114.738,65.76 -73.447,0 -132.961,-59.571 -132.961,-133.024 0,-73.481 59.514,-133.052 132.961,-133.052 73.446,0 132.96,59.571 132.96,133.052 0,10.955 -1.309,21.604 -3.817,31.806"
             style="fill:none;stroke:#000000;stroke-width:15;stroke-linecap:round;stroke-linejoin:round;stroke-miterlimit:10;stroke-dasharray:none;stroke-opacity:1"
             id="path2511" /></g><g
           id="g2513"
           transform="translate(334.9629,146.9355)"><path
             d="m 0,0 v 9.422 c 0,30.97 -24.825,35.681 -45.89,41.452 -7.439,2.006 -9.389,11.596 -10.923,14.69 m -44.3,0 c -1.533,-3.094 -3.484,-12.684 -10.923,-14.69 -21.065,-5.771 -45.89,-10.482 -45.89,-41.452 V 0"
             style="fill:none;stroke:#000000;stroke-width:15;stroke-linecap:round;stroke-linejoin:round;stroke-miterlimit:10;stroke-dasharray:none;stroke-opacity:1"
             id="path2515" /></g><g
           id="g2517"
           transform="translate(312.5332,280.5171)"><path
             d="m 0,0 v -17.283 c 0,-20.294 -19.058,-45.773 -42.379,-54.414 -10.225,-3.819 -18.083,-3.819 -28.309,0 -23.321,8.641 -42.378,34.12 -42.378,54.414 V 0"
             style="fill:none;stroke:#000000;stroke-width:15;stroke-linecap:round;stroke-linejoin:round;stroke-miterlimit:10;stroke-dasharray:none;stroke-opacity:1"
             id="path2519" /></g><g
           id="g2521"
           transform="translate(213.2031,195.1606)"><path
             d="m 0,0 35.135,-20.6 c 5.963,-3.875 9.361,-3.875 15.324,0 L 85.594,0"
             style="fill:none;stroke:#000000;stroke-width:15;stroke-linecap:round;stroke-linejoin:round;stroke-miterlimit:10;stroke-dasharray:none;stroke-opacity:1"
             id="path2523" /></g><g
           id="g2525"
           transform="translate(232.6514,338.8892)"><path
             d="m 0,0 c 7.355,3.484 15.352,5.269 23.349,5.408 28.28,-0.474 56.533,-21.771 56.533,-63.78 -22.875,1.617 -19.476,19.095 -35.275,15.025 -12.203,-3.15 -16.716,-4.739 -21.258,-4.739 -4.542,0 -9.056,1.589 -21.259,4.739 -15.799,4.07 -12.4,-13.408 -35.275,-15.025 0,15.192 3.678,27.681 9.752,37.437"
             style="fill:none;stroke:#000000;stroke-width:15;stroke-linecap:round;stroke-linejoin:round;stroke-miterlimit:10;stroke-dasharray:none;stroke-opacity:1"
             id="path2527" /></g><g
           id="g2529"
           transform="translate(131.3701,378.668)"><path
             d="M 0,0 30.621,-30.636"
             style="fill:none;stroke:#000000;stroke-width:15;stroke-linecap:round;stroke-linejoin:round;stroke-miterlimit:10;stroke-dasharray:none;stroke-opacity:1"
             id="path2531" /></g><g
           id="g2533"
           transform="translate(350.0088,348.0601)"><path
             d="M 0,0 30.621,30.942"
             style="fill:none;stroke:#000000;stroke-width:15;stroke-linecap:round;stroke-linejoin:round;stroke-miterlimit:10;stroke-dasharray:none;stroke-opacity:1"
             id="path2535" /></g><g
           id="g2537"
           transform="translate(131.3701,129.29)"><path
             d="M 0,0 30.621,30.608"
             style="fill:none;stroke:#000000;stroke-width:15;stroke-linecap:round;stroke-linejoin:round;stroke-miterlimit:10;stroke-dasharray:none;stroke-opacity:1"
             id="path2539" /></g><g
           id="g2541"
           transform="translate(350.0088,159.8701)"><path
             d="M 0,0 30.621,-30.942"
             style="fill:none;stroke:#000000;stroke-width:15;stroke-linecap:round;stroke-linejoin:round;stroke-miterlimit:10;stroke-dasharray:none;stroke-opacity:1"
             id="path2543" /></g><g
           id="g2545"
           transform="translate(88.5732,253.979)"><path
             d="M 0,0 H 34.466"
             style="fill:none;stroke:#000000;stroke-width:15;stroke-linecap:round;stroke-linejoin:round;stroke-miterlimit:10;stroke-dasharray:none;stroke-opacity:1"
             id="path2547" /></g><g
           id="g2549"
           transform="translate(423.4268,253.979)"><path
             d="M 0,0 H -34.466"
             style="fill:none;stroke:#000000;stroke-width:15;stroke-linecap:round;stroke-linejoin:round;stroke-miterlimit:10;stroke-dasharray:none;stroke-opacity:1"
             id="path2551" /></g><g
           id="g2553"
           transform="translate(256,86.4448)"><path
             d="M 0,0 V 34.482"
             style="fill:none;stroke:#000000;stroke-width:15;stroke-linecap:round;stroke-linejoin:round;stroke-miterlimit:10;stroke-dasharray:none;stroke-opacity:1"
             id="path2555" /></g><g
           id="g2557"
           transform="translate(256,421.4854)"><path
             d="M 0,0 V -34.482"
             style="fill:none;stroke:#000000;stroke-width:15;stroke-linecap:round;stroke-linejoin:round;stroke-miterlimit:10;stroke-dasharray:none;stroke-opacity:1"
             id="path2559" /></g><g
           id="g2561"
           transform="translate(88.5732,253.979)"><path
             d="m 0,0 c 0,21.213 -17.22,38.413 -38.423,38.413 -21.204,0 -38.423,-17.2 -38.423,-38.413 0,-21.241 17.219,-38.441 38.423,-38.441 C -17.22,-38.441 0,-21.241 0,0 Z"
             style="fill:none;stroke:#000000;stroke-width:15;stroke-linecap:round;stroke-linejoin:round;stroke-miterlimit:10;stroke-dasharray:none;stroke-opacity:1"
             id="path2563" /></g><g
           id="g2565"
           transform="translate(423.4268,253.979)"><path
             d="m 0,0 c 0,21.213 17.22,38.413 38.423,38.413 21.204,0 38.423,-17.2 38.423,-38.413 0,-21.241 -17.219,-38.441 -38.423,-38.441 C 17.22,-38.441 0,-21.241 0,0 Z"
             style="fill:none;stroke:#000000;stroke-width:15;stroke-linecap:round;stroke-linejoin:round;stroke-miterlimit:10;stroke-dasharray:none;stroke-opacity:1"
             id="path2567" /></g><g
           id="g2569"
           transform="translate(256,86.4448)"><path
             d="m 0,0 c 21.203,0 38.423,-17.2 38.423,-38.413 0,-21.242 -17.22,-38.441 -38.423,-38.441 -21.203,0 -38.423,17.199 -38.423,38.441 C -38.423,-17.2 -21.203,0 0,0 Z"
             style="fill:none;stroke:#000000;stroke-width:15;stroke-linecap:round;stroke-linejoin:round;stroke-miterlimit:10;stroke-dasharray:none;stroke-opacity:1"
             id="path2571" /></g><g
           id="g2573"
           transform="translate(256,421.4854)"><path
             d="M 0,0 C 21.203,0 38.423,17.2 38.423,38.441 38.423,59.655 21.203,76.854 0,76.854 -21.203,76.854 -38.423,59.655 -38.423,38.441 -38.423,17.2 -21.203,0 0,0 Z"
             style="fill:none;stroke:#000000;stroke-width:15;stroke-linecap:round;stroke-linejoin:round;stroke-miterlimit:10;stroke-dasharray:none;stroke-opacity:1"
             id="path2575" /></g><g
           id="g2577"
           transform="translate(81.1055,119.8398)"><path
             d="m 0,0 c 16.551,0 30.009,-13.436 30.009,-30.022 0,-16.586 -13.458,-30.022 -30.009,-30.022 -16.578,0 -30.008,13.436 -30.008,30.022 C -30.008,-13.436 -16.578,0 0,0 Z"
             style="fill:none;stroke:#000000;stroke-width:15;stroke-linecap:round;stroke-linejoin:round;stroke-miterlimit:10;stroke-dasharray:none;stroke-opacity:1"
             id="path2579" /></g><g
           id="g2581"
           transform="translate(35.2432,24.6157)"><path
             d="m 0,0 c 0,18.538 11.118,34.594 27.027,41.814 m 37.643,0 C 80.579,34.594 91.725,18.538 91.725,0"
             style="fill:none;stroke:#000000;stroke-width:15;stroke-linecap:round;stroke-linejoin:round;stroke-miterlimit:10;stroke-dasharray:none;stroke-opacity:1"
             id="path2583" /></g><g
           id="g2585"
           transform="translate(81.1055,7.8345)"><path
             d="m 0,0 c 39.147,0 71.105,31.974 71.105,71.14 0,39.193 -31.958,71.139 -71.105,71.139 -39.175,0 -71.105,-31.946 -71.105,-71.139 C -71.105,31.974 -39.175,0 0,0 Z"
             style="fill:none;stroke:#000000;stroke-width:15;stroke-linecap:round;stroke-linejoin:round;stroke-miterlimit:10;stroke-dasharray:none;stroke-opacity:1"
             id="path2587" /></g><g
           id="g2589"
           transform="translate(85.5078,474.2266)"><path
             d="m 0,0 c 16.578,0 30.009,-13.436 30.009,-30.022 0,-16.559 -13.431,-30.022 -30.009,-30.022 -16.578,0 -30.008,13.463 -30.008,30.022 C -30.008,-13.436 -16.578,0 0,0 Z"
             style="fill:none;stroke:#000000;stroke-width:15;stroke-linecap:round;stroke-linejoin:round;stroke-miterlimit:10;stroke-dasharray:none;stroke-opacity:1"
             id="path2591" /></g><g
           id="g2593"
           transform="translate(39.6455,379.0024)"><path
             d="m 0,0 c 0,18.538 11.146,34.594 27.055,41.814 m 37.615,0 C 80.579,34.594 91.725,18.538 91.725,0"
             style="fill:none;stroke:#000000;stroke-width:15;stroke-linecap:round;stroke-linejoin:round;stroke-miterlimit:10;stroke-dasharray:none;stroke-opacity:1"
             id="path2595" /></g><g
           id="g2597"
           transform="translate(85.5078,362.2212)"><path
             d="m 0,0 c 39.175,0 71.105,31.974 71.105,71.14 0,39.193 -31.93,71.139 -71.105,71.139 -39.146,0 -71.105,-31.946 -71.105,-71.139 C -71.105,31.974 -39.146,0 0,0 Z"
             style="fill:none;stroke:#000000;stroke-width:15;stroke-linecap:round;stroke-linejoin:round;stroke-miterlimit:10;stroke-dasharray:none;stroke-opacity:1"
             id="path2599" /></g></g></g></g></svg>
