<svg id="Line" viewBox="0 0 64 64" xmlns="http://www.w3.org/2000/svg"><path d="m28.48932 37.23645.0224 2.2572c.00293.22363-.06641.43945-.19824.62305l-2.00977 2.79248c-.38086.52734-.58594 1.17725-.57715 1.83008l.00586.42285c.00684.47852.24316.93115.63086 1.21045.38672.27832.8916.35645 1.3418.21289l4.07129-1.29785c.21387-.06738.43945-.06689.65332.00732l4.02148 1.36914c.1582.05371.32227.08008.48632.08008.31446 0 .62599-.09766.88673-.28662.39648-.2876.62988-.75195.625-1.24072l-.00391-.41064c-.00586-.62354-.19824-1.22266-.55664-1.73291l-2.16406-3.08496c-.125-.17773-.19141-.38672-.19434-.60352l-.02069-2.0625 6.86346 2.31348c.16797.05615.3418.08398.51367.08398.33594 0 .66895-.10498.94727-.30664.42188-.30615.6709-.80029.66602-1.32373l-.01367-1.36621c-.00879-.84229-.37891-1.6416-1.01465-2.19336l-8.0603-6.98914-.05005-4.98938c0-.02686-.00195-.05371-.00391-.08057l-.04199-.40723c-.14746-.78613-.42285-1.54102-.81348-2.23486-.6543-1.19092-1.50781-1.95508-2.1084-2.38623-.33398-.23975-.78418-.24951-1.13184-.02344-.8623.56641-1.58691 1.33545-2.10059 2.23438-.4043.73047-.66992 1.51855-.79688 2.42285l-.02148.39551.04987 5.02289-7.90436 6.8067c-.63672.54883-.99707 1.35205-.98828 2.20459l.01367 1.36523c.00586.51807.25977 1.0083.67969 1.31152.28125.20312.61816.30908.95898.30908.16602 0 .33203-.0249.49316-.07617l6.84381-2.17908zm5.03528 1.66833c-.44244.04486-.89215.07471-1.35468.07471-.52112.00366-1.08453-.04437-1.66437-.117l-.13831-13.71875c.47455-.05219.95862-.08521 1.45892-.0744.53918.00439 1.04877.04669 1.54285.10626l.15558 13.72919zm2.72736 5.31738c.06738.09619.11816.20166.15039.3125l-3.32715-1.13281c-.32129-.10986-.65234-.16455-.9834-.16455-.30957 0-.62012.04834-.92285.14502l-3.41797 1.08936c.03125-.14111.08984-.27588.1748-.39307l2.01074-2.79395c.10303-.14313.19019-.29388.26611-.44916.68457.08582 1.35168.1416 1.97412.14398.59454 0 1.1767-.04572 1.75043-.112.05103.09119.10004.18341.16071.26971l2.16406 3.08496zm5.90918-8.18164c.2041.17676.32227.43359.3252.70361l.00781.82178-7.0058-2.36157-.05011-4.99335zm-11.80859-13.75928c.08398-.58301.27148-1.14111.55176-1.64697.2373-.41455.53223-.78271.88184-1.1001.3252.3125.67285.72852.96777 1.2666.28809.51172.48926 1.06104.58301 1.53857l.00922.81476c-.48468-.04932-.98224-.08032-1.49359-.08478-.50714-.00812-1.00995.01715-1.50562.06317l-.0061-.60809.01172-.24316zm-8.85254 14.20361c-.00293-.26172.10449-.50537.29297-.66797l6.62561-5.70551.04999 5.03296-6.95978 2.216-.00879-.87549z"/><path d="m52.7002 12.48486c-3.75977-.02002-7.41406-.77881-10.8623-2.25537-3.10156-1.32764-5.92969-3.19482-8.40527-5.54834l-.00098-.00049c-.94922-.90234-2.38477-.91309-3.33984-.02344-2.09375 1.95166-4.43555 3.57422-6.96191 4.82324-3.70605 1.83301-7.70508 2.82959-11.88574 2.96289-1.35742.04346-2.4209 1.1543-2.4209 2.52881v14.90381c0 3.09131.38281 6.02686 1.13672 8.7251 1.13867 4.07373 3.61035 9.93701 8.91992 14.73975 3.35547 3.03564 7.47754 5.29102 11.9209 6.52246.33105.0918.66699.1377 1.00488.1377.30176 0 .60547-.03662.9082-.11035 3.76172-.9126 10.88574-3.50635 16.33301-10.62256 2.00879-2.625 3.56152-5.57422 4.61426-8.76514 1.00586-3.04688 1.51562-6.42383 1.51562-10.03711v-15.43262c0-1.39844-1.11133-2.54199-2.47656-2.54834zm.47656 17.98096c0 3.3999-.47559 6.56592-1.41406 9.41016-.9834 2.97852-2.43164 5.72949-4.30371 8.17627-5.07422 6.62793-11.71094 9.04443-15.21582 9.89502-.30762.07422-.6123.07031-.9082-.01172-4.14453-1.14844-7.9873-3.25-11.11328-6.07812-4.95508-4.48193-7.26758-9.97559-8.33594-13.79443-.70508-2.52344-1.0625-5.27783-1.0625-8.18701v-14.90381c0-.28857.21289-.521.48535-.52979 4.46777-.14209 8.74316-1.2085 12.70801-3.16895 2.7002-1.33545 5.20312-3.06934 7.43848-5.15332.08691-.08057.18848-.12109.29199-.12109.10645 0 .21484.04395.30762.13184 2.64844 2.51807 5.67578 4.51562 8.99609 5.9375 3.69531 1.58203 7.61133 2.39502 11.63965 2.4165.26367.00146.48633.25244.48633.54834v15.43262z"/><path d="m49.06543 31.76221c-.5625-.03906-1.02832.37695-1.06738.92725-.13281 1.88379-.47363 3.66602-1.0127 5.29785-.74902 2.26758-1.85059 4.36133-3.27539 6.22266-3.86035 5.04248-8.91016 6.88135-11.57715 7.52881-.19727.04785-.3916.04639-.58301-.00732-3.15332-.87305-6.07812-2.47266-8.45703-4.625-.40918-.36963-1.04199-.33838-1.41211.0708-.37109.40967-.33887 1.04199.07031 1.4126 2.6084 2.36035 5.8125 4.11328 9.26465 5.06885.27539.07666.55469.11475.83496.11475.25 0 .50195-.03027.75391-.09131 2.92285-.70947 8.45996-2.72559 12.69336-8.25635 1.56055-2.03955 2.76758-4.33105 3.58594-6.81104.5918-1.78906.96484-3.73535 1.1084-5.78467.03906-.55078-.37598-1.02881-.92676-1.06787z"/><path d="m47.92773 16.75488c-2.8623-.01514-5.64453-.59277-8.26855-1.7168-2.3584-1.00977-4.51172-2.43066-6.39844-4.22314-.82129-.78174-2.0625-.78857-2.88574-.02002-1.59375 1.48535-3.37695 2.7207-5.30176 3.67236-2.82031 1.39551-5.86523 2.1543-9.0498 2.25586-1.16992.0376-2.08595.99365-2.08595 2.17627v11.4668c0 2.39844.29689 4.67773.8838 6.77441.25391.90967.55664 1.80762.90039 2.66895.15625.3916.53125.63037.92871.63037.12305 0 .24902-.02295.37012-.07129.5127-.20459.76367-.78613.55859-1.29932-.31641-.79541-.59668-1.62549-.83203-2.46729-.53711-1.92139-.80958-4.01953-.80958-6.23584v-11.4668c0-.09814.06446-.17432.1504-.17725 3.47168-.11084 6.79395-.93896 9.87207-2.46191 2.09863-1.03809 4.04297-2.38477 5.7793-4.00293.04395-.04199.09277-.04004.14355.00732 2.06055 1.95703 4.41211 3.50879 6.98926 4.6123 2.87109 1.22949 5.91406 1.86133 9.04492 1.87793.06934.00049.1455.08252.1455.19141v2.56787c0 .55225.44728 1 1 1s1-.44775 1-1v-2.56787c0-1.20215-.95702-2.18506-2.13475-2.19141z"/></svg>