<?xml version="1.0" encoding="utf-8"?>
<!-- Generator: Adobe Illustrator 23.0.6, SVG Export Plug-In . SVG Version: 6.00 Build 0)  -->
<svg version="1.1" id="Layer_1" xmlns="http://www.w3.org/2000/svg" xmlns:xlink="http://www.w3.org/1999/xlink" x="0px" y="0px"
	 viewBox="0 0 500 500" style="enable-background:new 0 0 500 500;" xml:space="preserve">
<style type="text/css">
	.st0{fill-rule:evenodd;clip-rule:evenodd;fill:#FFFFFF;}
</style>
<path class="st0" d="M262.9,310.2v-86.8c0-0.5-0.4-0.9-0.9-0.9h-22.5c-0.5,0-0.9,0.4-0.9,0.9v18.7c0,9.1-7.5,16.6-16.6,16.6h-13.7
	c-9.1,0-16.6-7.5-16.6-16.6v-18.7c0-0.5-0.4-0.9-0.9-0.9h-22.5c-0.5,0-0.9,0.4-0.9,0.9v86.8c0,0.5,0.4,0.9,0.9,0.9H262
	C262.5,311.1,262.9,310.7,262.9,310.2L262.9,310.2z M121.5,237.4H44c-3.6,0-6.5,2.9-6.5,6.5c0,3.6,2.9,6.5,6.5,6.5h77.5
	c3.6,0,6.5-2.9,6.5-6.5S125.1,237.4,121.5,237.4z M123.7,185.8H61.3c-3.6,0-6.5,2.9-6.5,6.5s2.9,6.5,6.5,6.5h62.4
	c3.6,0,6.5-2.9,6.5-6.5S127.3,185.8,123.7,185.8z M95.3,134.2c-3.6,0-6.5,2.9-6.5,6.5c0,3.6,2.9,6.5,6.5,6.5h70.4
	c3.6,0,6.5-2.9,6.5-6.5c0-3.6-2.9-6.5-6.5-6.5H95.3z M80.4,140.7c0-3.6-2.9-6.5-6.5-6.5h-7.7c-3.6,0-6.5,2.9-6.5,6.5
	c0,3.6,2.9,6.5,6.5,6.5h7.7C77.4,147.3,80.4,144.4,80.4,140.7z M118.5,89.1c0,3.6,2.9,6.5,6.5,6.5h40.7c3.6,0,6.5-2.9,6.5-6.5
	s-2.9-6.5-6.5-6.5H125C121.4,82.6,118.5,85.5,118.5,89.1z M103.5,95.7c3.6,0,6.5-2.9,6.5-6.5s-2.9-6.5-6.5-6.5h-7.7
	c-3.6,0-6.5,2.9-6.5,6.5s2.9,6.5,6.5,6.5H103.5z M262.6,137.2h13.7c1.9,0,3.5-1.6,3.5-3.5V115c0-0.5-0.4-0.9-0.9-0.9h-19
	c-0.5,0-0.9,0.4-0.9,0.9v18.7C259.1,135.6,260.6,137.2,262.6,137.2z M232.1,209.4h-9.5c-0.5,0-0.9-0.4-0.9-0.9V115
	c0-0.5,0.4-0.9,0.9-0.9h22.5c0.5,0,0.9,0.4,0.9,0.9v18.7c0,9.1,7.5,16.6,16.6,16.6h13.7c9.1,0,16.6-7.5,16.6-16.6V115
	c0-0.5,0.4-0.9,0.9-0.9h22.5c0.5,0,0.9,0.4,0.9,0.9v93.5c0,0.5-0.4,0.9-0.9,0.9C288.2,209.4,260.1,209.4,232.1,209.4L232.1,209.4z
	 M313.3,223.4v18.7c0,1.9,1.6,3.5,3.5,3.5h13.7c1.9,0,3.5-1.6,3.5-3.5v-18.7c0-0.5-0.4-0.9-0.9-0.9h-19
	C313.7,222.5,313.3,222.9,313.3,223.4z M224.5,244.5c-0.6,0.6-1.5,1-2.5,1h-13.7c-1.9,0-3.5-1.6-3.5-3.5v-18.7
	c0-0.5,0.4-0.9,0.9-0.9h19c0.5,0,0.9,0.4,0.9,0.9v18.3C225.6,242.8,225.4,243.7,224.5,244.5z M276.8,311.1c-0.5,0-0.9-0.4-0.9-0.9
	v-86.8c0-0.5,0.4-0.9,0.9-0.9h22.5c0.5,0,0.9,0.4,0.9,0.9v18.3c0,9.7,7.4,17,16.6,17h13.7c9.1,0,16.6-7.5,16.6-16.6v-18.7
	c0-0.5,0.4-0.9,0.9-0.9h22.5c0.5,0,0.9,0.4,0.9,0.9v86.8c0,0.5-0.4,0.9-0.9,0.9H276.8z M364,350.1c7.9,0,14.3,6.4,14.3,14.3
	s-6.4,14.3-14.3,14.3s-14.3-6.4-14.3-14.3S356.1,350.1,364,350.1z M420.2,324.2c0.5,0,0.9-0.4,0.9-0.9V202.4c0-0.4-0.2-0.7-0.5-0.8
	L368,180.4c-5.6-2.2-5.3-10,0-12.1l57.2-23.1c4.3-1.7,9,1.5,9,6.1h0l0,172c0,0.5,0.4,0.9,0.9,0.9h26.7c0.6,0,1,0.6,0.8,1.2
	c-16.8,41.9-21.7,92-75.8,92H155.2c-53,0-84.1-67.1-95.4-120.6c-0.1-0.5,0.3-1.1,0.9-1.1h62.5c0.4,0,0.7,0.2,0.8,0.5
	c0.9,2.2,1.8,4.4,2.7,6.6c5.5,13.2,17.7,21.3,31.9,21.3L420.2,324.2L420.2,324.2z M265.4,350.1c-7.9,0-14.3,6.4-14.3,14.3
	s6.4,14.3,14.3,14.3s14.3-6.4,14.3-14.3S273.3,350.1,265.4,350.1z M166.7,350.1c-7.9,0-14.3,6.4-14.3,14.3s6.4,14.3,14.3,14.3
	c7.9,0,14.3-6.4,14.3-14.3S174.6,350.1,166.7,350.1z"/>
</svg>
