<svg viewBox="0 0 110 110" xmlns="http://www.w3.org/2000/svg"><g id="_30._Customer_Service" data-name="30. Customer Service"><circle cx="51" cy="55" fill="#e7efff" r="50"/><circle cx="85" cy="26" fill="#00c99f" r="20"/><path d="m82 35h-8a2 2 0 0 1 -2-2 7.82 7.82 0 0 1 5-7.28l1.58-.59a2.13 2.13 0 0 0 -.71-4.13 1.87 1.87 0 0 0 -1.87 2 2 2 0 0 1 -4 0 5.88 5.88 0 0 1 5.87-6 6.14 6.14 0 0 1 2.13 11.88c-1.51.57-2.62.81-3.44 2.12h5.44a2 2 0 0 1 0 4z" fill="#fff"/><path d="m96 22a2 2 0 0 0 -2 2v2h-3.23l2.13-6.37a2 2 0 0 0 -3.8-1.26l-3 9a2 2 0 0 0 1.9 2.63h6v3a2 2 0 0 0 4 0v-9a2 2 0 0 0 -2-2z" fill="#fff"/><path d="m75 92h-58v-45a29 29 0 0 1 58 0z" fill="#7f96d1"/><path d="m84.23 92.35a50 50 0 0 1 -70.88-4.46l23.65-7.89h18l24.53 8.18a8 8 0 0 1 4.7 4.17z" fill="#4e6aff"/><path d="m46 94a9 9 0 0 1 -9-9v-5h18v5a9 9 0 0 1 -9 9z" fill="#7f96d1"/><path d="m46 94-7.51 6a2 2 0 0 1 -3.2-1.12l-3.87-17 5.58-1.88z" fill="#323fd4"/><path d="m60.58 81.86-3.87 17a2 2 0 0 1 -3.2 1.12l-7.51-5.98 9-14z" fill="#323fd4"/><path d="m75 56a2 2 0 0 1 -2-2v-7a27 27 0 0 0 -54 0v7a2 2 0 0 1 -4 0v-7a31 31 0 0 1 62 0v7a2 2 0 0 1 -2 2z" fill="#ffa100"/><circle cx="4" cy="12" fill="#00c99f" r="3"/><circle cx="104" cy="4" fill="#ffa100" r="3"/><circle cx="102" cy="96" fill="#00c99f" r="3"/><circle cx="9" cy="106" fill="#ff4d69" r="3"/><path d="m46 85a21 21 0 0 1 -21-21v-15.63a4.37 4.37 0 0 1 5.61-4.19l19 5.65a10.07 10.07 0 0 0 11.4-4.32 3.22 3.22 0 0 1 5.99 1.71v16.78a21 21 0 0 1 -21 21z" fill="#a5bced"/><rect fill="#323fd4" height="22" rx="2" width="6" x="19" y="46"/><path d="m15 48h4a0 0 0 0 1 0 0v18a0 0 0 0 1 0 0h-4a4 4 0 0 1 -4-4v-10a4 4 0 0 1 4-4z" fill="#4e6aff"/><path d="m69 79h-11a2 2 0 0 1 0-4h11a4 4 0 0 0 4-4v-7a2 2 0 0 1 4 0v7a8 8 0 0 1 -8 8z" fill="#ffa100"/><rect fill="#323fd4" height="22" rx="2" transform="matrix(-1 0 0 -1 140 114)" width="6" x="67" y="46"/><path d="m77 48h4a0 0 0 0 1 0 0v18a0 0 0 0 1 0 0h-4a4 4 0 0 1 -4-4v-10a4 4 0 0 1 4-4z" fill="#4e6aff" transform="matrix(-1 0 0 -1 154 114)"/><path d="m38 64a2 2 0 0 1 -2-2v-4a2 2 0 0 1 4 0v4a2 2 0 0 1 -2 2z" fill="#7f96d1"/><path d="m54 64a2 2 0 0 1 -2-2v-4a2 2 0 0 1 4 0v4a2 2 0 0 1 -2 2z" fill="#7f96d1"/><path d="m47 80h-2a8 8 0 0 1 -8-8 2 2 0 0 1 2-2h14a2 2 0 0 1 2 2 8 8 0 0 1 -8 8z" fill="#fff"/></g></svg>