<svg viewBox="0 0 110 110" xmlns="http://www.w3.org/2000/svg"><g id="_7._Database_Management" data-name="7. Database Management"><circle cx="55" cy="59" fill="#e7efff" r="50"/><circle cx="4" cy="17" fill="#ff4d69" r="3"/><circle cx="104" cy="4" fill="#00c99f" r="3"/><circle cx="106" cy="98" fill="#ffa100" r="3"/><circle cx="9" cy="106" fill="#00c99f" r="3"/><path d="m86 21a1 1 0 0 0 -1 1v5a3 3 0 0 1 -3 3h-26v-7a1 1 0 0 0 -2 0v7h-26a3 3 0 0 1 -3-3v-5a1 1 0 0 0 -2 0v5a5 5 0 0 0 5 5h26v13a1 1 0 0 0 2 0v-13h26a5 5 0 0 0 5-5v-5a1 1 0 0 0 -1-1z" fill="#ffa100"/><path d="m91.57 93.08a49.8 49.8 0 0 1 -12.82 9.92h-47.5a49.8 49.8 0 0 1 -12.82-9.92 2.12 2.12 0 0 1 .57-.08c77.06 0 72.12 0 72.57.08z" fill="#4e6aff"/><rect fill="#8fa2ff" height="56" rx="6" width="68" x="21" y="37"/><rect fill="#fff" height="46" rx="2" width="58" x="26" y="42"/><path d="m46 93h18a0 0 0 0 1 0 0v2a2 2 0 0 1 -2 2h-14a2 2 0 0 1 -2-2v-2a0 0 0 0 1 0 0z" fill="#323fd4"/><ellipse cx="55" cy="8" fill="#a5bced" rx="12" ry="5"/><path d="m67 8v6c0 2.76-5.37 5-12 5s-12-2.24-12-5v-6c0 4.83 14.74 6.79 21.6 3 1.51-.83 2.4-1.87 2.4-3z" fill="#7f96d1"/><path d="m67 14v6c0 2.76-5.37 5-12 5s-12-2.24-12-5v-6c0 4.83 14.74 6.79 21.6 3 1.51-.83 2.4-1.87 2.4-3z" fill="#a5bced"/><circle cx="55" cy="8" fill="#fff" r="1"/><circle cx="51" cy="8" fill="#fff" r="1"/><circle cx="59" cy="8" fill="#fff" r="1"/><ellipse cx="25" cy="8" fill="#a5bced" rx="12" ry="5"/><path d="m37 8v6c0 2.76-5.37 5-12 5s-12-2.24-12-5v-6c0 4.83 14.74 6.79 21.6 3 1.51-.83 2.4-1.87 2.4-3z" fill="#7f96d1"/><path d="m37 14v6c0 2.76-5.37 5-12 5s-12-2.24-12-5v-6c0 4.83 14.74 6.79 21.6 3 1.51-.83 2.4-1.87 2.4-3z" fill="#a5bced"/><circle cx="25" cy="8" fill="#fff" r="1"/><circle cx="21" cy="8" fill="#fff" r="1"/><circle cx="29" cy="8" fill="#fff" r="1"/><ellipse cx="85" cy="8" fill="#a5bced" rx="12" ry="5"/><path d="m97 8v6c0 2.76-5.37 5-12 5s-12-2.24-12-5v-6c0 4.83 14.74 6.79 21.6 3 1.51-.83 2.4-1.87 2.4-3z" fill="#7f96d1"/><path d="m97 14v6c0 2.76-5.37 5-12 5s-12-2.24-12-5v-6c0 4.83 14.74 6.79 21.6 3 1.51-.83 2.4-1.87 2.4-3z" fill="#a5bced"/><circle cx="85" cy="8" fill="#fff" r="1"/><circle cx="81" cy="8" fill="#fff" r="1"/><circle cx="89" cy="8" fill="#fff" r="1"/><path d="m70 67v-4a1 1 0 0 0 -1-1h-1.65a1 1 0 0 1 -.95-.72 12.82 12.82 0 0 0 -.71-1.71 1 1 0 0 1 .17-1.19l1.14-1.16a1 1 0 0 0 0-1.41l-2.81-2.81a1 1 0 0 0 -1.41 0l-1.16 1.16a1 1 0 0 1 -1.19.17 12.82 12.82 0 0 0 -1.71-.71 1 1 0 0 1 -.72-1v-1.62a1 1 0 0 0 -1-1h-4a1 1 0 0 0 -1 1v1.65a1 1 0 0 1 -.72 1 12.82 12.82 0 0 0 -1.71.71 1 1 0 0 1 -1.19-.17l-1.16-1.19a1 1 0 0 0 -1.41 0l-2.81 2.81a1 1 0 0 0 0 1.41l1.16 1.16a1 1 0 0 1 .17 1.19 12.82 12.82 0 0 0 -.71 1.71 1 1 0 0 1 -1 .72h-1.62a1 1 0 0 0 -1 1v4a1 1 0 0 0 1 1h1.65a1 1 0 0 1 1 .72 12.82 12.82 0 0 0 .71 1.71 1 1 0 0 1 -.17 1.19l-1.19 1.16a1 1 0 0 0 0 1.41l2.81 2.81a1 1 0 0 0 1.41 0l1.17-1.16a1 1 0 0 1 1.18-.17 12.82 12.82 0 0 0 1.71.71 1 1 0 0 1 .72.95v1.67a1 1 0 0 0 1 1h4a1 1 0 0 0 1-1v-1.65a1 1 0 0 1 .72-.95 12.82 12.82 0 0 0 1.71-.71 1 1 0 0 1 1.18.17l1.17 1.14a1 1 0 0 0 1.41 0l2.81-2.81a1 1 0 0 0 0-1.41l-1.16-1.16a1 1 0 0 1 -.17-1.19 12.82 12.82 0 0 0 .71-1.71 1 1 0 0 1 .95-.72h1.67a1 1 0 0 0 1-1z" fill="#4e6aff"/><circle cx="55" cy="65" fill="#fff" r="6"/><g fill="#a5bced"><path d="m33 48h-2a1 1 0 0 1 0-2h2a1 1 0 0 1 0 2z"/><path d="m41 48h-2a1 1 0 0 1 0-2h2a1 1 0 0 1 0 2z"/><path d="m71 84h-2a1 1 0 0 1 0-2h2a1 1 0 0 1 0 2z"/><path d="m79 84h-2a1 1 0 0 1 0-2h2a1 1 0 0 1 0 2z"/></g></g></svg>