<svg height="512" viewBox="0 0 110 110" width="512" xmlns="http://www.w3.org/2000/svg"><g id="_12._Stock" data-name="12. Stock"><circle cx="55" cy="55" fill="#e7efff" r="50"/><circle cx="13" cy="4" fill="#ff4d69" r="3"/><circle cx="106" cy="17" fill="#00c99f" r="3"/><circle cx="97" cy="106" fill="#ffa100" r="3"/><circle cx="4" cy="97" fill="#00c99f" r="3"/><path d="m85 33v62a48.32 48.32 0 0 1 -6 3.87c-22.53-4.76-48 0-48 0a48.32 48.32 0 0 1 -6-3.87v-62a12 12 0 0 1 12-12h36a12 12 0 0 1 12 12z" fill="#a5bced"/><path d="m79 33v65.86a50 50 0 0 1 -48 0v-65.86a6 6 0 0 1 6-6h36a6 6 0 0 1 6 6z" fill="#fff"/><path d="m43 26h24a0 0 0 0 1 0 0v4a4 4 0 0 1 -4 4h-16a4 4 0 0 1 -4-4v-4a0 0 0 0 1 0 0z" fill="#a5bced"/><path d="m55 31h-6a2 2 0 0 1 0-4h6a2 2 0 0 1 0 4z" fill="#7f96d1"/><circle cx="62" cy="29" fill="#7f96d1" r="2"/><path d="m40 77h2v4h-2z" fill="#4e6aff"/><path d="m42 67v-4h-2v4h-2a1 1 0 0 0 -1 1v18a1 1 0 0 0 1 1h2v4h2v-4h2a1 1 0 0 0 1-1v-18a1 1 0 0 0 -1-1z" fill="#4e6aff"/><path d="m56 59v-4h-2v4h-2a1 1 0 0 0 -1 1v18a1 1 0 0 0 1 1h2v4h2v-4h2a1 1 0 0 0 1-1v-18a1 1 0 0 0 -1-1z" fill="#323fd4"/><path d="m70 48v-4h-2v4h-2a1 1 0 0 0 -1 1v30a1 1 0 0 0 1 1h2v4h2v-4h2a1 1 0 0 0 1-1v-30a1 1 0 0 0 -1-1z" fill="#4e6aff"/><circle cx="31" cy="46" fill="#ffa100" r="12"/><path d="m31.5 45h-1a1.5 1.5 0 0 1 0-3h3.5a1 1 0 0 0 0-2h-2v-1a1 1 0 0 0 -2 0v1a3.49 3.49 0 0 0 .5 7h1a1.5 1.5 0 0 1 0 3h-3.5a1 1 0 0 0 0 2h2v1a1 1 0 0 0 2 0v-1a3.49 3.49 0 0 0 -.5-7z" fill="#fff"/><rect fill="#4e6aff" height="6" rx="1" width="6" x="67" y="92"/><path d="m62 94h-8a1 1 0 0 1 0-2h8a1 1 0 0 1 0 2z" fill="#a5bced"/><path d="m62 98h-4a1 1 0 0 1 0-2h4a1 1 0 0 1 0 2z" fill="#a5bced"/><circle cx="45" cy="46" fill="#00c99f" r="7"/><path d="m47.71 44.29-2-2a1 1 0 0 0 -1.42 0l-2 2a1 1 0 0 0 1.42 1.42l.29-.3v3.59a1 1 0 0 0 2 0v-3.59c.35.35.54.59 1 .59a1 1 0 0 0 .71-1.71z" fill="#fff"/></g></svg>