<?xml version="1.0" encoding="iso-8859-1"?>
<!-- Generator: Adobe Illustrator 19.0.0, SVG Export Plug-In . SVG Version: 6.00 Build 0)  -->
<svg version="1.1" id="Capa_1" xmlns="http://www.w3.org/2000/svg" xmlns:xlink="http://www.w3.org/1999/xlink" x="0px" y="0px"
	 viewBox="0 0 512 512" style="enable-background:new 0 0 512 512;" xml:space="preserve">
<g>
	<g>
		<path d="M491.8,323.109v-36.176c0.308,0,11.778,0,11.725,0c6.443,0,9.835-7.588,5.667-12.4l-39.282-51.884
			c-3-3.96-8.954-3.955-11.95,0l-39.57,52.266c-3.729,4.924-0.208,12.018,5.975,12.018h11.148v36.168h-8.23v-22.086
			c0-4.14-3.354-7.494-7.494-7.494h-41.297c-4.14,0-7.494,3.354-7.494,7.494v22.086h-19.343l-3.976-6.775
			c33.768-42.497,48.564-97.276,40.006-151.756c-0.643-4.089-4.48-6.88-8.566-6.241c-4.09,0.643-6.884,4.477-6.241,8.566
			c1.069,6.811,1.748,13.724,2.034,20.636h-78.596c-0.404-20.695-2.451-41.253-6.264-61.071
			c21.593-4.649,42.547-10.888,62.49-18.632c4.507,8.103,8.424,16.619,11.668,25.503c1.42,3.887,5.72,5.889,9.611,4.469
			c3.888-1.42,5.889-5.724,4.469-9.611C350.364,51.725,277.472,0.199,195.236,0.199c-68.42,0-131.928,35.927-166.973,94.407
			C-60.104,243.198,72.49,420.289,235.995,385.565v106.312c0,10.987,8.937,19.924,19.922,19.924H356.51
			c4.14,0,7.494-3.354,7.494-7.494c0-4.139-3.354-7.494-7.494-7.494H255.917c-2.721,0-4.933-2.214-4.933-4.935
			c0-3.407,0-178.628,0-184.748c0-2.723,2.213-4.936,4.933-4.936c6.414,0,59.565,0,66.088,0c9.56,16.293,4.945,8.43,18.894,32.199
			c1.346,2.293,3.806,3.701,6.464,3.701h23.634v19.634h-11.146c-6.177,0-9.708,7.088-5.975,12.018l39.568,52.266
			c3,3.961,8.956,3.953,11.95,0l39.57-52.266c3.729-4.924,0.208-12.018-5.975-12.018h-11.706v-19.634h8.23v5.552
			c0,4.14,3.354,7.494,7.494,7.494h41.297c4.14,0,7.494-3.354,7.494-7.494v-5.55c2.887,0.079,5.211,2.451,5.211,5.356v148.426
			c0,2.722-2.213,4.935-4.934,4.935H391.484c-4.14,0-7.494,3.355-7.494,7.494c0,4.14,3.354,7.494,7.494,7.494h100.593
			c10.985,0,19.923-8.937,19.923-19.924V343.449C512,332.28,502.952,323.19,491.8,323.109z M148.932,21.261
			c-23.442,22.913-37.67,58.809-45.336,90.527c-19.903-4.285-39.248-9.939-57.697-16.949
			C70.249,58.521,106.807,32.45,148.932,21.261z M37.942,107.83c19.936,7.743,40.884,13.98,62.471,18.628
			c-3.881,20.181-5.867,40.779-6.266,61.073H15.572C16.75,159.141,24.58,131.934,37.942,107.83z M15.564,202.519h78.586
			c0.455,22.274,2.678,42.391,6.262,61.071c-21.541,4.639-42.444,10.859-62.341,18.579
			C24.483,257.828,16.719,230.862,15.564,202.519z M46.048,295.157c18.397-6.983,37.686-12.619,57.53-16.891
			c9.542,39.619,25.536,71.254,45.354,90.57C106.281,357.5,69.978,330.66,46.048,295.157z M109.143,202.519h78.599v51.126
			c-24.529,0.404-48.894,2.78-72.613,7.044C111.693,242.8,109.584,223.672,109.143,202.519z M187.742,374.149
			c-37.262-6.92-60.112-60.58-69.44-98.808c22.677-4.048,45.978-6.295,69.44-6.693V374.149z M187.742,187.531h-78.606
			c0.402-19.458,2.294-38.901,5.981-58.174c23.724,4.267,48.094,6.644,72.626,7.048V187.531z M187.742,121.402
			c-23.46-0.398-46.756-2.645-69.432-6.693c9.106-37.353,31.945-91.778,69.432-98.803V121.402z M344.578,94.836
			c-18.452,7.013-37.802,12.668-57.71,16.953c-7.69-31.816-21.918-67.603-45.285-90.479
			C283.525,32.574,320.284,58.778,344.578,94.836z M272.153,114.71c-22.673,4.047-45.967,6.294-69.422,6.692V15.911
			C240.323,22.98,263.085,77.529,272.153,114.71z M268.988,287.201h-13.071c-10.985,0-19.922,8.938-19.922,19.925v45.71
			c-8.814,10.082-20.086,18.863-33.264,21.309V268.634c23.46,0.398,46.746,2.676,69.42,6.722
			C271.17,279.377,270.117,283.332,268.988,287.201z M278.804,238.551h-0.001c-0.94,7.737-2.09,15.016-3.458,22.139
			c-23.718-4.265-48.085-6.642-72.614-7.045v-51.126h78.591C281.002,218.578,279.853,229.209,278.804,238.551z M202.731,187.531
			v-51.126c24.529-0.403,48.897-2.781,72.618-7.047c3.69,19.283,5.585,38.8,5.979,58.173H202.731z M284.562,287.201
			c0.809-2.942,1.573-5.931,2.304-8.949c11.677,2.513,23.167,5.489,34.388,8.949H284.562z M339.5,302.388l-6.708-11.431
			c3.962,1.358,7.888,2.776,11.773,4.254C342.433,298.372,340.605,300.908,339.5,302.388z M290.042,263.588
			c0.816-4.241,1.492-8.188,1.643-9.188h0.001c2.83-17.331,4.285-34.621,4.629-51.88h78.599
			c-1.129,27.082-8.471,54.54-22.406,79.692C332.573,274.47,311.626,268.235,290.042,263.588z M399.42,405.069l-24.495-32.355h3.566
			c4.14,0,7.494-3.354,7.494-7.494c0-4.933,0-50.361,0-56.709h26.308c0,6.392,0,51.8,0,56.709c0,4.14,3.354,7.494,7.494,7.494h4.127
			L399.42,405.069z M484.307,271.945c-4.14,0-7.494,3.354-7.494,7.494c-0.001,6.117-0.001,50.84-0.001,56.709h-26.308
			c0-5.866,0-50.594,0-56.709c0-4.14-3.354-7.494-7.494-7.494h-3.568l24.497-32.356l24.497,32.356H484.307z"/>
	</g>
</g>
<g>
</g>
<g>
</g>
<g>
</g>
<g>
</g>
<g>
</g>
<g>
</g>
<g>
</g>
<g>
</g>
<g>
</g>
<g>
</g>
<g>
</g>
<g>
</g>
<g>
</g>
<g>
</g>
<g>
</g>
</svg>
